<?xml version="1.0" encoding="UTF-8"?>
<svg version="1.1" xmlns="http://www.w3.org/2000/svg" width="498" height="501">
<path d="M0 0 C0.86625 0.49757813 1.7325 0.99515625 2.625 1.5078125 C10.84336497 6.45316584 17.91133298 12.5877072 25 19 C26.20462891 20.07701172 26.20462891 20.07701172 27.43359375 21.17578125 C33.19160884 26.61684138 37.83805783 32.8469363 42.48461914 39.23706055 C43.27533813 40.30887573 43.27533813 40.30887573 44.08203125 41.40234375 C44.54843018 42.04679443 45.0148291 42.69124512 45.49536133 43.35522461 C48.97267453 47.15640246 53.44710522 47.53448042 58.3125 48.3125 C75.27011367 51.3083193 91.8927231 58.00734553 106 68 C106 68.66 106 69.32 106 70 C106.54269531 70.061875 107.08539063 70.12375 107.64453125 70.1875 C110.99494411 71.34319797 113.17316274 73.59666035 115.6875 76 C116.47979004 76.74540039 116.47979004 76.74540039 117.28808594 77.50585938 C118.36089239 78.51960631 119.4301022 79.53717351 120.49560547 80.55859375 C121.82252917 81.82995979 123.16226563 83.08792415 124.50390625 84.34375 C148.45200582 107.33392558 158.77850941 139.75949091 159.96875 172.22265625 C160.10496646 179.28462846 159.20162006 186.04474033 158 193 C157.78085937 194.2890625 157.56171875 195.578125 157.3359375 196.90625 C153.41859089 218.08575036 143.9057893 240.07164995 129 256 C128.34 256 127.68 256 127 256 C126.690625 256.8353125 126.690625 256.8353125 126.375 257.6875 C124.82556238 260.29337236 122.92336321 261.85553126 120.5625 263.72265625 C118.80691566 265.1086806 118.80691566 265.1086806 116.6875 267.375 C113.67937303 270.31317052 110.47781061 272.81742448 107.13671875 275.36328125 C105.49735605 276.61902709 103.89588851 277.92437241 102.3125 279.25 C99.68868028 281.2355933 96.9527978 282.56197535 94 284 C93.37062218 303.35515324 92.90126645 322.69598325 92.97265625 342.0625 C92.97533886 342.88361267 92.97802147 343.70472534 92.98078537 344.55072021 C93.00665718 352.07832161 93.04650304 359.6058192 93.09594727 367.13330078 C93.12294866 371.33331678 93.13982588 375.5332811 93.15081596 379.73336792 C93.15691863 381.29598989 93.16678201 382.85860294 93.18089485 384.4211731 C93.37723905 406.23658122 90.65698285 424.30252424 75.36328125 440.67578125 C58.95905943 456.80885891 41.71604114 458.60391252 19.72509766 458.53344727 C17.39433753 458.54051584 15.06358199 458.54926478 12.73283386 458.55955505 C6.43725886 458.58195389 0.14193639 458.57913139 -6.15366316 458.57023358 C-12.09294999 458.5644528 -18.03220093 458.57418498 -23.97148176 458.58252143 C-36.45378912 458.59905329 -48.93598305 458.59042046 -61.41828354 458.57353585 C-72.80393668 458.55884608 -84.18932575 458.57346519 -95.5749449 458.60230602 C-107.30502278 458.63179494 -119.0349792 458.64264457 -130.76509249 458.63312382 C-137.33494109 458.62821186 -143.90458461 458.63031636 -150.4744072 458.65091133 C-156.65525579 458.6693615 -162.83561653 458.66319562 -169.01643944 458.63871193 C-171.27375868 458.63373359 -173.53111571 458.63711552 -175.78840446 458.64986038 C-196.37775633 458.75683852 -213.13285081 455.86776406 -228.4375 440.875 C-239.91248609 429.04082983 -245.62666769 416.66804083 -245.54589844 400.07202148 C-245.55623611 398.94677063 -245.56657379 397.82151978 -245.57722473 396.66217041 C-245.60646563 392.98166201 -245.60814874 389.30170883 -245.609375 385.62109375 C-245.62437999 383.04141717 -245.64111194 380.46175012 -245.65948486 377.88209534 C-245.69860245 371.80403097 -245.72033489 365.72613693 -245.73345876 359.64796835 C-245.7493073 352.76620279 -245.78779238 345.88462214 -245.82805204 339.00296295 C-245.93443167 320.66880254 -246.0091664 302.33449436 -246 284 C-246.61351318 283.69513672 -247.22702637 283.39027344 -247.85913086 283.07617188 C-250.12574164 281.93679221 -252.34439611 280.73102889 -254.5625 279.5 C-255.32691406 279.0771875 -256.09132813 278.654375 -256.87890625 278.21875 C-258.62708501 277.21427159 -260.32241124 276.11839251 -262 275 C-262 274.34 -262 273.68 -262 273 C-262.81404297 272.6596875 -262.81404297 272.6596875 -263.64453125 272.3125 C-266.70470088 270.60733085 -269.14061306 268.3729671 -271.6875 266 C-272.21641846 265.50870605 -272.74533691 265.01741211 -273.2902832 264.51123047 C-296.29665012 242.88475895 -312.14814311 212.84616161 -313.2734375 180.8515625 C-313.86868241 151.15132166 -308.61675288 124.32621703 -291 100 C-290.55769043 99.38769531 -290.11538086 98.77539062 -289.65966797 98.14453125 C-288.30875622 96.29305207 -286.94173667 94.45545914 -285.5625 92.625 C-285.13727051 92.05861816 -284.71204102 91.49223633 -284.27392578 90.90869141 C-283.23242386 89.56564668 -282.12186641 88.27667974 -281 87 C-280.34 87 -279.68 87 -279 87 C-278.34 85.68 -277.68 84.36 -277 83 C-276.34 83 -275.68 83 -275 83 C-274.731875 82.360625 -274.46375 81.72125 -274.1875 81.0625 C-273 79 -273 79 -270 78 C-269.505 76.515 -269.505 76.515 -269 75 C-249.88883514 58.73296494 -225.73276331 49.41295252 -201 47 C-201 46.34 -201 45.68 -201 45 C-200.34 45 -199.68 45 -199 45 C-198.76023437 44.2884375 -198.52046875 43.576875 -198.2734375 42.84375 C-196.80351513 39.56122396 -194.94496753 37.24388186 -192.625 34.5 C-191.85414063 33.5821875 -191.08328125 32.664375 -190.2890625 31.71875 C-189.53367187 30.8215625 -188.77828125 29.924375 -188 29 C-187.28585938 28.0615625 -186.57171875 27.123125 -185.8359375 26.15625 C-185.23007813 25.4446875 -184.62421875 24.733125 -184 24 C-183.34 24 -182.68 24 -182 24 C-181.74476563 23.40960938 -181.48953125 22.81921875 -181.2265625 22.2109375 C-177.65661828 15.7759425 -169.87075988 11.25274785 -164 7 C-163.29746094 6.46761719 -162.59492188 5.93523438 -161.87109375 5.38671875 C-114.97972349 -29.12723398 -49.28920883 -29.00249178 0 0 Z M-110 55 C-110.99128906 55.48210937 -111.98257813 55.96421875 -113.00390625 56.4609375 C-129.25662612 65.14883208 -140.14255898 78.82049275 -148.359375 95.0546875 C-153.44278701 104.18062239 -161.56740504 109.85580168 -171.375 113.125 C-175.42491552 114.07564811 -179.48529371 114.23717583 -183.625 114.4375 C-201.52240464 115.4038601 -216.56578638 120.55954944 -229 134 C-238.4932289 145.29337607 -244.91115206 159.79043819 -244.41015625 174.8203125 C-242.8810754 186.67432973 -239.33943743 197.46384 -232 207 C-231.57847656 207.5775 -231.15695313 208.155 -230.72265625 208.75 C-223.18381067 218.49719429 -211.58815094 225.84680706 -200.07421875 230.07421875 C-199.38972656 230.37972656 -198.70523438 230.68523437 -198 231 C-197.67 231.99 -197.34 232.98 -197 234 C-196.113125 234.70125 -195.22625 235.4025 -194.3125 236.125 C-185.14634712 243.51493665 -179.94208322 256.65420467 -178 268 C-177.62220653 272.99638879 -177.49273081 277.99153527 -177.375 283 C-177.33674348 284.36069998 -177.29768752 285.72137774 -177.2578125 287.08203125 C-177.16402932 290.3878882 -177.07832611 293.69374674 -177 297 C-150.9405111 297.02332577 -124.88102375 297.04097759 -98.82152653 297.05181217 C-86.72256688 297.05697582 -74.6236137 297.06401981 -62.5246582 297.07543945 C-51.98333194 297.08538421 -41.44201036 297.09185293 -30.90067953 297.09408849 C-25.31541866 297.09539596 -19.73017121 297.09848404 -14.14491463 297.10573006 C-8.89440352 297.11248699 -3.64391142 297.11461763 1.60660362 297.11310768 C3.53964084 297.11338416 5.47267865 297.11539121 7.40571213 297.11920547 C10.03282261 297.12413762 12.65986009 297.12300007 15.28697205 297.12025452 C16.06224886 297.12316736 16.83752568 297.1260802 17.63629574 297.12908131 C21.10881064 297.43554309 21.10881064 297.43554309 24 296 C24.02115917 292.97423816 23.99131274 289.96205219 23.9375 286.9375 C23.80992849 267.88682084 26.0555876 251.76524333 39.5 237.3125 C46.50530867 230.83258948 54.0732767 225.53054479 62.5625 221.125 C74.75810205 214.22293265 83.42806727 202.03715191 88 189 C92.04080484 172.96305581 90.37702031 157.35315006 82 143 C79.41510365 138.71876541 76.61284936 135.44480985 73 132 C72.566875 131.47664063 72.13375 130.95328125 71.6875 130.4140625 C63.85799172 121.40197224 50.74478953 115.86313414 39 115 C36.89611123 114.88247604 34.79189621 114.77602704 32.68725586 114.67285156 C21.18656117 114.10873718 12.20421802 112.48785769 3 105 C0.625 102.3125 0.625 102.3125 -1 100 C-1.68449219 99.38318359 -1.68449219 99.38318359 -2.3828125 98.75390625 C-4.64116482 96.30463043 -5.96135616 93.57406737 -7.5 90.625 C-10.53843658 84.68850943 -10.53843658 84.68850943 -14 79 C-14.66 79 -15.32 79 -16 79 C-16.99 76.525 -16.99 76.525 -18 74 C-18.66 74 -19.32 74 -20 74 C-20.25007812 73.41863281 -20.50015625 72.83726563 -20.7578125 72.23828125 C-26.77380665 61.39814085 -41.78019862 54.73431169 -52.984375 51.0078125 C-71.40359589 45.96823887 -92.76334603 46.52889805 -110 55 Z M-177 366 C-177 373.59 -177 381.18 -177 389 C-111 389 -45 389 23 389 C23 381.41 23 373.82 23 366 C-6.24504204 364.96161651 -35.47288382 364.84355813 -64.734375 364.86962891 C-71.17954925 364.87530141 -77.62468194 364.87196021 -84.06985474 364.86617661 C-115.06097284 364.84278738 -146.02040245 365.14335832 -177 366 Z " fill="#FB6A00" transform="translate(325,35)"/>
<path d="M0 0 C3.50061895 -0.00587261 7.00117618 -0.01630988 10.50177002 -0.03076172 C14.65759297 -0.04740942 18.81330718 -0.05365474 22.96916199 -0.05195045 C24.49775241 -0.05278466 26.02634534 -0.05689989 27.55491638 -0.06464195 C29.66296221 -0.07453003 31.77063968 -0.07161382 33.87869263 -0.06567383 C35.0578273 -0.06709885 36.23696198 -0.06852386 37.451828 -0.06999207 C42.08619023 0.23548389 46.64843962 1.26640057 51.20266724 2.17724609 C51.20266724 10.42724609 51.20266724 18.67724609 51.20266724 27.17724609 C46.80219044 29.37748449 41.04761211 28.57470275 36.18313599 28.70849609 C35.48038229 28.72903549 34.77762859 28.74957489 34.05357933 28.77073669 C8.88309086 29.49278648 -16.30618677 29.50739157 -41.48483276 29.67724609 C-81.93549641 29.91615736 -81.93549641 29.91615736 -122.37936401 30.64599609 C-123.18585577 30.66480331 -123.99234753 30.68361053 -124.82327843 30.70298767 C-127.02812507 30.75581319 -129.23264472 30.81556121 -131.43722534 30.87841797 C-133.26064201 30.92863098 -133.26064201 30.92863098 -135.12089539 30.9798584 C-137.71611882 30.87830428 -137.71611882 30.87830428 -138.79733276 32.17724609 C-147.64525903 32.61964241 -147.64525903 32.61964241 -151.79733276 30.17724609 C-153.75481057 27.09766903 -154.04463151 24.6907786 -154.02780151 21.07958984 C-154.02586792 20.1134375 -154.02393433 19.14728516 -154.02194214 18.15185547 C-154.00969604 17.14960938 -153.99744995 16.14736328 -153.98483276 15.11474609 C-153.98418823 14.10863281 -153.9835437 13.10251953 -153.98287964 12.06591797 C-153.93798965 4.59921676 -153.93798965 4.59921676 -152.79733276 1.17724609 C-137.61733276 1.17724609 -122.43733276 1.17724609 -106.79733276 1.17724609 C-106.79733276 1.83724609 -106.79733276 2.49724609 -106.79733276 3.17724609 C-121.31733276 3.17724609 -135.83733276 3.17724609 -150.79733276 3.17724609 C-150.79733276 10.76724609 -150.79733276 18.35724609 -150.79733276 26.17724609 C-84.79733276 26.17724609 -18.79733276 26.17724609 49.20266724 26.17724609 C49.20266724 18.58724609 49.20266724 10.99724609 49.20266724 3.17724609 C47.39133301 3.17946671 45.57999878 3.18168732 43.71377563 3.18397522 C26.64553809 3.20424494 9.57730299 3.21929682 -7.49094391 3.22905827 C-16.26593001 3.23421033 -25.04090712 3.24123228 -33.81588745 3.25268555 C-41.46586281 3.26266566 -49.11583166 3.26910745 -56.76581335 3.27133459 C-60.8148463 3.27263604 -64.86386061 3.27568608 -68.91288757 3.28297615 C-72.72788548 3.28978888 -76.54285715 3.29185239 -80.35786057 3.29035378 C-81.75420143 3.29062775 -83.15054323 3.29260159 -84.54687881 3.29645157 C-91.3861187 3.31437576 -98.03497664 3.25053522 -104.79733276 2.17724609 C-104.79733276 1.84724609 -104.79733276 1.51724609 -104.79733276 1.17724609 C-69.86674523 0.51814342 -34.93715321 0.05860604 0 0 Z " fill="#E47E32" transform="translate(298.7973327636719,397.82275390625)"/>
<path d="M0 0 C0.33 0.99 0.66 1.98 1 3 C1.66 3.33 2.32 3.66 3 4 C-6.89419155 17.98018875 -18.84115732 27.87548812 -35.73013735 31.61654162 C-44.1062405 33.0315554 -52.81153784 32.5605663 -61.27490234 32.53344727 C-63.60566247 32.54051584 -65.93641801 32.54926478 -68.26716614 32.55955505 C-74.56274114 32.58195389 -80.85806361 32.57913139 -87.15366316 32.57023358 C-93.09294999 32.5644528 -99.03220093 32.57418498 -104.97148176 32.58252143 C-117.45378912 32.59905329 -129.93598305 32.59042046 -142.41828354 32.57353585 C-153.80393668 32.55884608 -165.18932575 32.57346519 -176.5749449 32.60230602 C-188.30502278 32.63179494 -200.0349792 32.64264457 -211.76509249 32.63312382 C-218.33494109 32.62821186 -224.90458461 32.63031636 -231.4744072 32.65091133 C-237.65525579 32.6693615 -243.83561653 32.66319562 -250.01643944 32.63871193 C-252.27375868 32.63373359 -254.53111571 32.63711552 -256.78840446 32.64986038 C-274.20248874 32.74034047 -289.80548291 31.33847743 -304 20 C-304.33 19.34 -304.66 18.68 -305 18 C-301.37 18.33 -297.74 18.66 -294 19 C-294 19.66 -294 20.32 -294 21 C-292.02 21.33 -290.04 21.66 -288 22 C-287.87625 22.639375 -287.7525 23.27875 -287.625 23.9375 C-287.41875 24.618125 -287.2125 25.29875 -287 26 C-283.36750928 27.81624536 -279.05992985 27.0088926 -275.06640625 26.9375 C-272.18989982 26.93219012 -269.42172234 27.16427366 -266.56570435 27.49581909 C-257.36348674 28.35008781 -248.11497404 28.13925933 -238.88232422 28.12939453 C-236.74754812 28.13075119 -234.61277225 28.13253261 -232.47799683 28.13470459 C-226.70549487 28.13924685 -220.93301088 28.13750273 -215.16050863 28.1343255 C-209.10823615 28.13178597 -203.05596517 28.13414382 -197.00369263 28.13571167 C-186.84409307 28.13752843 -176.68450079 28.13513969 -166.52490234 28.13037109 C-154.78976479 28.1249265 -143.05464461 28.12669456 -131.31950748 28.1321975 C-121.22920581 28.13673917 -111.13890936 28.1373741 -101.04860699 28.13475883 C-95.02842304 28.13320225 -89.00824724 28.13298542 -82.98806381 28.13629532 C-77.32945316 28.13918943 -71.67086486 28.13717002 -66.01225662 28.13140106 C-63.93905423 28.13008186 -61.86584995 28.1304533 -59.79264832 28.13266373 C-56.95653814 28.1354082 -54.12049899 28.13195397 -51.28439331 28.12698364 C-50.46988547 28.12921436 -49.65537763 28.13144509 -48.81618774 28.13374341 C-40.8235937 28.10669314 -34.14660769 27.82260411 -27 24 C-25.68 24 -24.36 24 -23 24 C-22.67 23.01 -22.34 22.02 -22 21 C-21.0925 20.71125 -20.185 20.4225 -19.25 20.125 C-15.83455475 19.20774355 -15.83455475 19.20774355 -13.4375 16.4375 C-10.83539413 13.83539413 -9.59126778 13.30782295 -6 13 C-6 12.34 -6 11.68 -6 11 C-5.34 11 -4.68 11 -4 11 C-4 10.34 -4 9.68 -4 9 C-3.34 9 -2.68 9 -2 9 C-1.855625 7.700625 -1.71125 6.40125 -1.5625 5.0625 C-1.125 1.125 -1.125 1.125 0 0 Z " fill="#DB7E35" transform="translate(406,461)"/>
<path d="M0 0 C0.625 1.8125 0.625 1.8125 1 4 C0.34 4.99 -0.32 5.98 -1 7 C-1.66 7 -2.32 7 -3 7 C-3.71502378 10.65879191 -4.36773463 14.32602555 -5 18 C-5.19078125 19.08796875 -5.3815625 20.1759375 -5.578125 21.296875 C-6.95493351 30.14778683 -7.13454333 38.64319398 -6.75048828 47.5871582 C-6.5758821 54.33719249 -6.5758821 54.33719249 -8.6796875 57.625 C-14.69325519 61.18859567 -23.66926086 58.96493278 -30.37646484 58.51586914 C-38.82138113 57.97605268 -47.26758636 57.6498839 -55.7265625 57.43359375 C-56.95366377 57.40164319 -56.95366377 57.40164319 -58.20555496 57.36904716 C-76.03919373 56.92519316 -93.873242 56.938853 -111.7109375 56.97265625 C-112.4311398 56.97394264 -113.15134211 56.97522902 -113.89336872 56.97655439 C-127.37132462 57.00095437 -140.84924552 57.03843909 -154.32713377 57.08749622 C-161.86018099 57.11490408 -169.39319535 57.1367144 -176.92628634 57.14750665 C-181.16413808 57.15401909 -185.40182977 57.16949607 -189.63962626 57.19182408 C-192.85658078 57.20624438 -196.07354517 57.20772611 -199.29052734 57.21118164 C-200.45479248 57.21994324 -201.61905762 57.22870483 -202.81860352 57.23773193 C-203.87421478 57.23642776 -204.92982605 57.2351236 -206.01742554 57.23377991 C-206.9370426 57.23692231 -207.85665966 57.24006472 -208.80414391 57.24330235 C-211 57 -211 57 -213 55 C-213.30297852 52.70019531 -213.30297852 52.70019531 -213.37890625 49.828125 C-213.41250244 48.77681396 -213.44609863 47.72550293 -213.48071289 46.64233398 C-213.50770264 45.52286377 -213.53469238 44.40339355 -213.5625 43.25 C-213.63375464 40.97520775 -213.70666212 38.70046665 -213.78125 36.42578125 C-213.81605469 35.32314941 -213.85085937 34.22051758 -213.88671875 33.08447266 C-214.09631228 27.37756608 -214.52155893 21.6903948 -215 16 C-216.32 16 -217.64 16 -219 16 C-219.33 12.04 -219.66 8.08 -220 4 C-217.29139726 7.61147032 -215.94157849 10.28078099 -214.375 14.4375 C-213.94960937 15.54996094 -213.52421875 16.66242188 -213.0859375 17.80859375 C-208.83180359 30.31085062 -211 40.22756997 -211 55 C-112 54.505 -112 54.505 -11 54 C-11 47.4 -11 40.8 -11 34 C-9.97089501 21.27652016 -7.76229062 10.34972082 0 0 Z " fill="#E49E65" transform="translate(359,277)"/>
<path d="M0 0 C0.66 0 1.32 0 2 0 C-0.86399223 9.54198386 -7.2014894 18.73510081 -14 26 C-14.66 26 -15.32 26 -16 26 C-16.20625 26.556875 -16.4125 27.11375 -16.625 27.6875 C-18.17443762 30.29337236 -20.07663679 31.85553126 -22.4375 33.72265625 C-24.19308434 35.1086806 -24.19308434 35.1086806 -26.3125 37.375 C-29.32062697 40.31317052 -32.52218939 42.81742448 -35.86328125 45.36328125 C-37.50264395 46.61902709 -39.10411149 47.92437241 -40.6875 49.25 C-43.31131972 51.2355933 -46.0472022 52.56197535 -49 54 C-49.62937782 73.35515324 -50.09873355 92.69598325 -50.02734375 112.0625 C-50.02466114 112.88361267 -50.02197853 113.70472534 -50.01921463 114.55072021 C-49.99334282 122.07832161 -49.95349696 129.6058192 -49.90405273 137.13330078 C-49.87705134 141.33331678 -49.86017412 145.5332811 -49.84918404 149.73336792 C-49.84308137 151.29598989 -49.83321799 152.85860294 -49.81910515 154.4211731 C-49.51519396 188.18813169 -49.51519396 188.18813169 -59 198 C-59 196.35 -59 194.7 -59 193 C-58.34 192.67 -57.68 192.34 -57 192 C-56.6029918 189.0616675 -56.6029918 189.0616675 -56.5 185.5625 C-56.20595376 180.39043669 -55.67338344 175.51844446 -54.5 170.4765625 C-53.07362419 163.4115448 -52.84157587 156.48397807 -52.81054688 149.30126953 C-52.80225357 148.25968185 -52.79396027 147.21809418 -52.78541565 146.14494324 C-52.76809438 143.89641921 -52.75290642 141.64787793 -52.73963928 139.39932632 C-52.71852162 135.84436713 -52.69151077 132.28949544 -52.66296387 128.73458862 C-52.59332047 119.91382233 -52.53360528 111.09299424 -52.47393799 102.27215576 C-52.42307201 94.80197138 -52.36829797 87.3318364 -52.30812073 79.86172104 C-52.28149732 76.35290733 -52.26072008 72.84408906 -52.2401123 69.3352356 C-52.22351787 67.1976092 -52.2066468 65.05998494 -52.18945312 62.92236328 C-52.18526871 61.94159317 -52.18108429 60.96082306 -52.17677307 59.95033264 C-52.16842941 59.05883011 -52.16008575 58.16732758 -52.15148926 57.24880981 C-52.14633553 56.47198915 -52.14118179 55.6951685 -52.13587189 54.89480782 C-52 53 -52 53 -51 51 C-50.01 51 -49.02 51 -48 51 C-47.67 50.01 -47.34 49.02 -47 48 C-45.68 48 -44.36 48 -43 48 C-43 47.34 -43 46.68 -43 46 C-42.01 46 -41.02 46 -40 46 C-40 45.01 -40 44.02 -40 43 C-37.09399739 41.74335022 -35.20395416 41 -32 41 C-32 40.34 -32 39.68 -32 39 C-31.34 39 -30.68 39 -30 39 C-30 38.01 -30 37.02 -30 36 C-29.360625 35.896875 -28.72125 35.79375 -28.0625 35.6875 C-27.381875 35.460625 -26.70125 35.23375 -26 35 C-25.67 34.01 -25.34 33.02 -25 32 C-22.9375 31.3125 -22.9375 31.3125 -21 31 C-21 29.68 -21 28.36 -21 27 C-20.34 27 -19.68 27 -19 27 C-19.495 25.02 -19.495 25.02 -20 23 C-18.68 23 -17.36 23 -16 23 C-15.505 21.515 -15.505 21.515 -15 20 C-14.34 20 -13.68 20 -13 20 C-13 19.01 -13 18.02 -13 17 C-12.34 17 -11.68 17 -11 17 C-11 15.35 -11 13.7 -11 12 C-9.68 11.67 -8.36 11.34 -7 11 C-7 10.34 -7 9.68 -7 9 C-5.35 8.34 -3.7 7.68 -2 7 C-2 5.35 -2 3.7 -2 2 C-1.34 2 -0.68 2 0 2 C0 1.34 0 0.68 0 0 Z " fill="#E0A468" transform="translate(468,265)"/>
<path d="M0 0 C0.33 0.66 0.66 1.32 1 2 C-0.32 2 -1.64 2 -3 2 C-3 1.34 -3 0.68 -3 0 C-4.093125 -0.103125 -5.18625 -0.20625 -6.3125 -0.3125 C-10.12286654 -1.02290732 -10.61737092 -1.29246695 -13 -4 C-15.59915538 -5.19027984 -15.59915538 -5.19027984 -18 -6 C-18 -6.99 -18 -7.98 -18 -9 C-19.32 -9 -20.64 -9 -22 -9 C-22 -9.66 -22 -10.32 -22 -11 C-22.97839844 -11.29003906 -22.97839844 -11.29003906 -23.9765625 -11.5859375 C-24.85054688 -11.84632812 -25.72453125 -12.10671875 -26.625 -12.375 C-27.48351562 -12.63023438 -28.34203125 -12.88546875 -29.2265625 -13.1484375 C-31.13209952 -13.73351788 -33.02657122 -14.35551057 -34.91015625 -15.0078125 C-38.18919687 -16.06075348 -41.44032603 -16.80361391 -44.8125 -17.5 C-48.88956271 -18.34634495 -52.95061088 -19.21812162 -57 -20.1875 C-59.56714654 -20.77115809 -61.51310835 -21 -64.1875 -21 C-67 -21 -67 -21 -69.7253418 -21.98339844 C-73.38312502 -23.11893928 -76.38145387 -23.25868158 -80.20703125 -23.265625 C-81.22518166 -23.2696508 -81.22518166 -23.2696508 -82.26390076 -23.27375793 C-84.44696524 -23.27766959 -86.62949027 -23.26512568 -88.8125 -23.25 C-89.55310669 -23.2478952 -90.29371338 -23.24579041 -91.0567627 -23.24362183 C-103.56983174 -23.20168066 -115.7159084 -22.56303415 -128 -20 C-128 -19.34 -128 -18.68 -128 -18 C-130.1783456 -16.9108272 -131.7203964 -16.71967644 -134.1328125 -16.46484375 C-135.34130859 -16.33432617 -135.34130859 -16.33432617 -136.57421875 -16.20117188 C-137.41597656 -16.11416016 -138.25773438 -16.02714844 -139.125 -15.9375 C-139.97449219 -15.84662109 -140.82398438 -15.75574219 -141.69921875 -15.66210938 C-143.7991145 -15.4379632 -145.89951293 -15.21853552 -148 -15 C-141.10151609 -19.59898927 -133.00691232 -21.76630684 -125 -23.625 C-124.09282227 -23.83664795 -123.18564453 -24.0482959 -122.25097656 -24.26635742 C-79.83170656 -33.79033488 -35.48269039 -25.40089275 0 0 Z " fill="#EC6D18" transform="translate(336,42)"/>
<path d="M0 0 C0.8244973 2.35354106 1.10900467 3.63981439 0.37744141 6.05712891 C-1.4474049 9.2988054 -2.83177595 11.50644609 -6.33691406 12.98730469 C-9.09811018 13.6135027 -11.81449511 14.03421671 -14.625 14.375 C-16.51382891 14.64811445 -18.40190036 14.92653419 -20.2890625 15.2109375 C-21.53743896 15.37021729 -21.53743896 15.37021729 -22.81103516 15.53271484 C-25.27728942 15.91852511 -25.27728942 15.91852511 -28 18 C-31.1875 18.125 -31.1875 18.125 -34 18 C-34 18.66 -34 19.32 -34 20 C-34.61746094 20.15855469 -35.23492187 20.31710938 -35.87109375 20.48046875 C-42.16343329 22.21397477 -47.42826035 24.63258677 -53 28 C-53.9075 28.495 -54.815 28.99 -55.75 29.5 C-58.17981908 31.00040845 -58.17981908 31.00040845 -60.4375 33.5625 C-63.27985798 36.26620637 -65.25687926 36.98623813 -69 38 C-72.65853314 39.04600272 -72.65853314 39.04600272 -75.0625 41.75 C-75.371875 42.4925 -75.68125 43.235 -76 44 C-79.45609075 49.60125053 -82.94742665 54.18987666 -89 57 C-89.33 57.66 -89.66 58.32 -90 59 C-90.66 58.67 -91.32 58.34 -92 58 C-90.4722133 54.56247993 -88.49818944 51.81046312 -86 49 C-85.34 49 -84.68 49 -84 49 C-83.34 47.68 -82.68 46.36 -82 45 C-81.34 45 -80.68 45 -80 45 C-79.731875 44.360625 -79.46375 43.72125 -79.1875 43.0625 C-78 41 -78 41 -75 40 C-74.67 39.01 -74.34 38.02 -74 37 C-54.88883514 20.73296494 -30.73276331 11.41295252 -6 9 C-6 8.34 -6 7.68 -6 7 C-5.34 7 -4.68 7 -4 7 C-3.71125 6.21625 -3.4225 5.4325 -3.125 4.625 C-2 2 -2 2 0 0 Z " fill="#E7904B" transform="translate(130,73)"/>
<path d="M0 0 C6.15234375 0.5859375 6.15234375 0.5859375 8 1 C9.49424821 3.98849641 9.38723836 7.10799317 9.5625 10.39453125 C9.6049585 11.18229446 9.64741699 11.97005768 9.69116211 12.7816925 C10.19738535 23.48081492 10.07213384 34.1882301 10.01776123 44.89602661 C9.92550121 64.59068835 9.94545472 84.28369316 10.31738281 103.97549438 C10.3556792 106.02733286 10.39053091 108.07923862 10.421875 110.13119507 C10.46634656 112.9536623 10.52385773 115.77552856 10.5859375 118.59765625 C10.59748871 119.42808441 10.60903992 120.25851257 10.62094116 121.11410522 C10.56941989 125.52638212 10.56941989 125.52638212 13 129 C13.66796875 131.0234375 13.66796875 131.0234375 14.1875 133.375 C14.36667969 134.14585937 14.54585937 134.91671875 14.73046875 135.7109375 C15.01304909 138.11082272 14.73503321 139.71670535 14 142 C14.99 142 15.98 142 17 142 C17.66 144.64 18.32 147.28 19 150 C19.66 150 20.32 150 21 150 C21.33 152.31 21.66 154.62 22 157 C13.20190575 148.95602812 8.07787241 138.17708625 7.48101807 126.18919373 C7.45222124 124.15031992 7.44417793 122.11107449 7.45410156 120.07202148 C7.44376389 118.94677063 7.43342621 117.82151978 7.42277527 116.66217041 C7.39353437 112.98166201 7.39185126 109.30170883 7.390625 105.62109375 C7.37562001 103.04141717 7.35888806 100.46175012 7.34051514 97.88209534 C7.30139755 91.80403097 7.27966511 85.72613693 7.26654124 79.64796835 C7.2506927 72.76620279 7.21220762 65.88462214 7.17194796 59.00296295 C7.06556833 40.66880254 6.9908336 22.33449436 7 4 C6.1028125 3.566875 6.1028125 3.566875 5.1875 3.125 C3 2 3 2 0 0 Z " fill="#CE722C" transform="translate(72,315)"/>
<path d="M0 0 C2.63278195 -0.00161555 5.2655552 -0.00517303 7.8983345 -0.00918579 C12.06710205 -0.01503995 16.23583294 -0.01526664 20.40460205 -0.01093674 C21.94042186 -0.00994638 23.47624361 -0.01051269 25.01206207 -0.01277542 C39.36704941 -0.0302003 39.36704941 -0.0302003 46.44835281 1.12338257 C46.44835281 1.45338257 46.44835281 1.78338257 46.44835281 2.12338257 C17.80819998 3.15111544 -10.81686724 3.28074391 -39.47327805 3.25375366 C-45.70758017 3.2479647 -51.94184008 3.25141121 -58.17614079 3.25732613 C-63.03260239 3.26093659 -67.88905392 3.25979248 -72.74551582 3.25719833 C-75.04713254 3.25653515 -77.3487502 3.25733601 -79.65036583 3.25967789 C-82.84184984 3.2622225 -86.03326408 3.25834246 -89.22474289 3.2527771 C-90.62325233 3.25581345 -90.62325233 3.25581345 -92.0500145 3.25891113 C-97.30785124 3.24196052 -102.34799499 2.88644445 -107.55164719 2.12338257 C-107.55164719 1.79338257 -107.55164719 1.46338257 -107.55164719 1.12338257 C-71.70143689 0.4469276 -35.85698834 0.01448293 0 0 Z " fill="#D2752D" transform="translate(301.5516471862793,397.8766174316406)"/>
<path d="M0 0 C13.70281976 20.55422964 15.09504554 51.29691288 11 75 C10.78085937 76.2890625 10.56171875 77.578125 10.3359375 78.90625 C8.14654333 90.74341411 4.72143152 101.4012826 -1 112 C-2.38254904 107.85235288 -1.72364288 104.67342415 0 100.6875 C1 99 1 99 2 98 C2.4147272 94.20713123 2.77255392 90.41662412 3.07421875 86.61328125 C3.15027344 85.81535156 3.22632813 85.01742187 3.3046875 84.1953125 C3.36640137 83.46328613 3.42811523 82.73125977 3.49169922 81.97705078 C4.11621956 79.54796064 5.22938787 78.72341883 7 77 C7.54858955 74.30399039 7.92591998 71.78629199 8.1875 69.0625 C8.26935547 68.36576172 8.35121094 67.66902344 8.43554688 66.95117188 C9.5604257 56.46805746 9.0238575 45.98410352 8.1875 35.5 C8.11724609 34.44296875 8.04699219 33.3859375 7.97460938 32.296875 C7.89404297 31.28109375 7.81347656 30.2653125 7.73046875 29.21875 C7.66239014 28.31060547 7.59431152 27.40246094 7.52416992 26.46679688 C6.92269153 23.6361785 5.79895153 22.22483064 4 20 C3.70703125 17.640625 3.70703125 17.640625 3.8125 15.25 C3.85310547 14.05117187 3.85310547 14.05117187 3.89453125 12.828125 C3.94673828 11.92320312 3.94673828 11.92320312 4 11 C3.01 11 2.02 11 1 11 C0.67 7.37 0.34 3.74 0 0 Z " fill="#DE8950" transform="translate(472,153)"/>
<path d="M0 0 C0.625 1.8125 0.625 1.8125 1 4 C0.34 4.99 -0.32 5.98 -1 7 C-1.66 7 -2.32 7 -3 7 C-3.71502378 10.65879191 -4.36773463 14.32602555 -5 18 C-5.28617188 19.63195312 -5.28617188 19.63195312 -5.578125 21.296875 C-6.95493351 30.14778683 -7.13454333 38.64319398 -6.75048828 47.5871582 C-6.5758821 54.33719249 -6.5758821 54.33719249 -8.6796875 57.625 C-14.64499379 61.15999632 -23.4535297 58.9755603 -30.109375 58.515625 C-40.06459202 57.86588184 -50.02778212 57.65816414 -60 57.4375 C-61.85417333 57.39416454 -63.70834008 57.35054635 -65.5625 57.30664062 C-70.04159772 57.20117944 -74.52076613 57.09950298 -79 57 C-79 56.67 -79 56.34 -79 56 C-56.56 55.34 -34.12 54.68 -11 54 C-11 47.4 -11 40.8 -11 34 C-9.97089501 21.27652016 -7.76229062 10.34972082 0 0 Z " fill="#DF7B2E" transform="translate(359,277)"/>
<path d="M0 0 C7.25910694 -0.02543756 14.5182023 -0.04290364 21.77734375 -0.05493164 C24.24479604 -0.0599481 26.71224537 -0.06676281 29.1796875 -0.07543945 C32.73438244 -0.08762288 36.28903793 -0.0932553 39.84375 -0.09765625 C40.93989624 -0.10281754 42.03604248 -0.10797882 43.16540527 -0.11329651 C48.87641255 -0.11371109 54.35231154 0.13914453 60 1 C60.07409401 4.95092059 60.12857406 8.90157294 60.16479492 12.85302734 C60.18732251 14.85919374 60.2254357 16.86516526 60.26367188 18.87109375 C60.27817383 20.75634766 60.27817383 20.75634766 60.29296875 22.6796875 C60.31653442 24.42354736 60.31653442 24.42354736 60.34057617 26.20263672 C60.22818604 27.1257666 60.1157959 28.04889648 60 29 C56.69857556 31.20094963 55.80630045 31.20410344 52 31.0625 C48.8658849 30.95523118 47.01639328 30.99453557 44 32 C41.86903868 31.75014835 39.7383201 31.49786904 37.60949516 31.23042488 C32.89653669 30.81425898 28.21391073 31.18431936 23.49829102 31.44506836 C10.65919818 32.05265156 -2.12357846 32.04327102 -14.97265625 31.87890625 C-17.24620489 31.85450584 -19.51975962 31.83066796 -21.7933197 31.80735779 C-27.68345264 31.74550064 -33.57347298 31.67617346 -39.46350098 31.60510254 C-45.5114239 31.53351128 -51.5594246 31.46924405 -57.60742188 31.40429688 C-69.40503344 31.27655918 -81.20253881 31.1409024 -93 31 C-93 30.67 -93 30.34 -93 30 C-92.15164471 29.99365209 -92.15164471 29.99365209 -91.28615093 29.98717594 C-77.33735299 29.88254642 -63.38859233 29.7737498 -49.43986034 29.66066074 C-42.69356273 29.60605943 -35.94726022 29.55281566 -29.20092773 29.50268555 C-0.12331896 29.28574025 28.93860542 29.04371553 58 28 C58 19.75 58 11.5 58 3 C50.2087232 2.18159729 50.2087232 2.18159729 42.45849609 1.79467773 C41.49825531 1.77473251 40.53801453 1.75478729 39.54867554 1.73423767 C38.55034698 1.71752518 37.55201843 1.70081268 36.5234375 1.68359375 C34.94654648 1.6524221 34.94654648 1.6524221 33.33779907 1.62062073 C30.01692523 1.55582764 26.69598005 1.49657072 23.375 1.4375 C21.10806587 1.39424779 18.84113866 1.3506315 16.57421875 1.30664062 C11.0495521 1.20021951 5.52481628 1.09832976 0 1 C0 0.67 0 0.34 0 0 Z " fill="#ED6E12" transform="translate(292,397)"/>
<path d="M0 0 C0.33 0 0.66 0 1 0 C1.04654865 13.28356942 1.08198293 26.5671191 1.10362434 39.85075378 C1.11401642 46.02032371 1.12809112 52.18983742 1.15087891 58.359375 C1.17277162 64.32460068 1.18460295 70.28977262 1.18975449 76.2550354 C1.19342097 78.51934656 1.20057975 80.78365513 1.21146011 83.04794312 C1.33299294 109.41275495 1.33299294 109.41275495 -1 120 C-1.99 120.99 -1.99 120.99 -3 122 C-2.98747192 121.417379 -2.97494385 120.834758 -2.96203613 120.23448181 C-2.80301271 112.80225516 -2.64995538 105.36991492 -2.5 97.9375 C-2.47599121 96.75195526 -2.45198242 95.56641052 -2.42724609 94.34494019 C-2.12230161 79.07087755 -1.87666448 63.80615144 -2.03710938 48.52905273 C-2.08668655 42.07305643 -1.80761479 35.7373309 -1.25830078 29.30493164 C-0.81294643 23.60666896 -0.63601236 17.8987982 -0.4375 12.1875 C-0.39431641 11.00607422 -0.35113281 9.82464844 -0.30664062 8.60742188 C-0.20209979 5.73835666 -0.09991382 2.86922942 0 0 Z " fill="#EB6D16" transform="translate(415,321)"/>
<path d="M0 0 C0.33 0 0.66 0 1 0 C1.02505615 0.7520874 1.0501123 1.5041748 1.07592773 2.27905273 C1.19150514 5.66539196 1.31440345 9.05142613 1.4375 12.4375 C1.47681641 13.62150391 1.51613281 14.80550781 1.55664062 16.02539062 C1.59853516 17.15009766 1.64042969 18.27480469 1.68359375 19.43359375 C1.72025146 20.47572021 1.75690918 21.51784668 1.79467773 22.59155273 C1.73515341 24.9499826 1.73515341 24.9499826 3 26 C4.61849357 26.09389733 6.24110964 26.11743623 7.86231995 26.11352539 C8.91655655 26.1134549 9.97079315 26.1133844 11.05697632 26.11331177 C12.80876694 26.10556229 12.80876694 26.10556229 14.59594727 26.09765625 C15.8193129 26.09619598 17.04267853 26.09473572 18.30311584 26.0932312 C20.97843455 26.08940968 23.65368037 26.08376679 26.3289814 26.07516479 C30.60367211 26.06158487 34.87835249 26.05573148 39.15306091 26.05102539 C49.80923042 26.03804425 60.46537221 26.01388231 71.121521 25.98962402 C81.49897782 25.96620176 91.87642757 25.94771821 102.25390625 25.9375 C102.97360486 25.9367107 103.69330346 25.9359214 104.43481112 25.93510818 C127.96822808 25.91111682 151.47982837 26.16503495 175 27 C175 27.33 175 27.66 175 28 C140.60115858 29.27320042 106.22253619 28.95299748 71.81108725 28.62664449 C64.0667598 28.55347696 56.32237034 28.48829291 48.57796848 28.42356598 C32.71856524 28.29084666 16.85926131 28.14877312 1 28 C-0.35700647 25.28598706 -0.1123861 23.15153684 -0.09765625 20.1171875 C-0.09443359 18.95058594 -0.09121094 17.78398437 -0.08789062 16.58203125 C-0.07951172 15.35871094 -0.07113281 14.13539063 -0.0625 12.875 C-0.05798828 11.64394531 -0.05347656 10.41289062 -0.04882812 9.14453125 C-0.0370133 6.09630608 -0.02054028 3.04817686 0 0 Z " fill="#E56E17" transform="translate(145,307)"/>
<path d="M0 0 C-0.99 0.33 -1.98 0.66 -3 1 C-3.33 1.99 -3.66 2.98 -4 4 C-13.21235176 10.36283698 -21.82430811 12.01066232 -32.70898438 12.53857422 C-41.39032315 13.02513297 -49.97392749 14.56025464 -58 18 C-58 16.35 -58 14.7 -58 13 C-51.77740016 9.81634427 -47.18770659 7.76870811 -40.125 7.62109375 C-38.15273437 7.56985352 -38.15273437 7.56985352 -36.140625 7.51757812 C-34.76042873 7.49026855 -33.38022002 7.46358162 -32 7.4375 C-29.29147501 7.37932394 -26.58332445 7.31380186 -23.875 7.24609375 C-22.67617187 7.22216553 -21.47734375 7.1982373 -20.2421875 7.17358398 C-17.38240992 7.0204739 -14.78260701 6.65135318 -12 6 C-11.979375 5.401875 -11.95875 4.80375 -11.9375 4.1875 C-11 2 -11 2 -7.6875 0.1875 C-3.00266904 -1.32117438 -3.00266904 -1.32117438 0 0 Z " fill="#E07023" transform="translate(172,138)"/>
<path d="M0 0 C1 2 1 2 0.36328125 4.20703125 C-1.60375615 9.08440651 -3.4926648 13.00889443 -7 17 C-7.33 17.99 -7.66 18.98 -8 20 C-8.66 20 -9.32 20 -10 20 C-10 21.32 -10 22.64 -10 24 C-10.66 24 -11.32 24 -12 24 C-11.773125 24.598125 -11.54625 25.19625 -11.3125 25.8125 C-11 28 -11 28 -12.3125 29.75 C-14 31 -14 31 -16 31 C-16.04898437 31.75925781 -16.09796875 32.51851562 -16.1484375 33.30078125 C-16.22320312 34.29464844 -16.29796875 35.28851563 -16.375 36.3125 C-16.44460937 37.29863281 -16.51421875 38.28476563 -16.5859375 39.30078125 C-17 42 -17 42 -19 45 C-20.24433022 49.50760683 -20.32488442 54.16536247 -20.5625 58.8125 C-20.60568359 59.60076172 -20.64886719 60.38902344 -20.69335938 61.20117188 C-20.79878321 63.13394215 -20.89983094 65.06695026 -21 67 C-21.33 67 -21.66 67 -22 67 C-23.18135474 73.48349807 -23.11322974 79.86214507 -23.0625 86.4375 C-23.05798828 87.55060547 -23.05347656 88.66371094 -23.04882812 89.81054688 C-23.03711193 92.54042101 -23.02070699 95.27018174 -23 98 C-23.33 98 -23.66 98 -24 98 C-29.64681234 66.4333933 -22.8022172 33.24966412 -4.98046875 6.78515625 C-3.35270806 4.49601745 -1.7049351 2.23201283 0 0 Z " fill="#E4914F" transform="translate(37,131)"/>
<path d="M0 0 C0.33 0.66 0.66 1.32 1 2 C3.02463255 2.65213292 3.02463255 2.65213292 5 3 C5 4.32 5 5.64 5 7 C5.66 7 6.32 7 7 7 C7.22944429 10.14465637 7.42956557 13.2905615 7.625 16.4375 C7.68945312 17.31599609 7.75390625 18.19449219 7.8203125 19.09960938 C8.28205167 26.92031655 7.24175535 33.82182743 4 41 C3.34 41 2.68 41 2 41 C2.04125 41.9075 2.0825 42.815 2.125 43.75 C2.00468444 46.8782046 1.6085292 48.38614006 0 51 C-0.66 51 -1.32 51 -2 51 C-2.061875 51.721875 -2.12375 52.44375 -2.1875 53.1875 C-3.27224543 56.94238801 -5.03212965 58.50429084 -8 61 C-10.8125 62.3125 -10.8125 62.3125 -13 63 C-12.175 62.01 -11.35 61.02 -10.5 60 C-3.25721796 50.2739784 2.23068734 39.20642751 3 27 C3.06832031 26.10023438 3.13664062 25.20046875 3.20703125 24.2734375 C3.4586455 17.80601936 2.27793802 11.99650202 0.65625 5.75 C0 3 0 3 0 0 Z " fill="#E07221" transform="translate(411,185)"/>
<path d="M0 0 C5.15054904 0.01044589 10.30110346 0.01484192 15.45166016 0.01983643 C25.46013719 0.03038848 35.4685913 0.04732971 45.47705078 0.06866455 C45.47705078 0.39866455 45.47705078 0.72866455 45.47705078 1.06866455 C37.30932315 1.98795786 29.1791658 2.24983751 20.96702385 2.32902527 C18.76860116 2.35038374 16.57030669 2.37736249 14.3719635 2.40570068 C8.92532964 2.47485499 3.47860624 2.53514973 -1.96813965 2.59472656 C-6.60059751 2.645634 -11.2329769 2.70037187 -15.86532402 2.76054382 C-18.03129124 2.78708596 -20.1972663 2.80790039 -22.36329651 2.82855225 C-24.32189857 2.85362854 -24.32189857 2.85362854 -26.32006836 2.87921143 C-27.47269669 2.8917395 -28.62532501 2.90426758 -29.81288147 2.91717529 C-32.4904226 2.88715243 -32.4904226 2.88715243 -34.52294922 4.06866455 C-34.52294922 3.40866455 -34.52294922 2.74866455 -34.52294922 2.06866455 C-48.38294922 2.06866455 -62.24294922 2.06866455 -76.52294922 2.06866455 C-76.52294922 1.73866455 -76.52294922 1.40866455 -76.52294922 1.06866455 C-51.01156934 0.05723759 -25.52860427 -0.05748752 0 0 Z " fill="#ED6B0D" transform="translate(226.52294921875,396.93133544921875)"/>
<path d="M0 0 C1.01707031 -0.01224609 2.03414062 -0.02449219 3.08203125 -0.03710938 C9.37157546 -0.04922018 14.92838802 0.51407416 21 2.1875 C21.495 2.6825 21.495 2.6825 22 3.1875 C23.0725 3.27 24.145 3.3525 25.25 3.4375 C29.67554243 4.32260849 31.13493591 5.80151517 34 9.1875 C33.07380859 8.89746094 33.07380859 8.89746094 32.12890625 8.6015625 C10.68892681 2.00966623 -11.24412677 0.69214451 -32 10.1875 C-33.66350501 10.8620171 -35.3291761 11.53132189 -37 12.1875 C-36.67 10.8675 -36.34 9.5475 -36 8.1875 C-34.68 8.1875 -33.36 8.1875 -32 8.1875 C-32 7.5275 -32 6.8675 -32 6.1875 C-31.28972656 6.06632812 -30.57945312 5.94515625 -29.84765625 5.8203125 C-28.92855469 5.65273437 -28.00945312 5.48515625 -27.0625 5.3125 C-26.14597656 5.15007812 -25.22945312 4.98765625 -24.28515625 4.8203125 C-23.53105469 4.61148438 -22.77695313 4.40265625 -22 4.1875 C-21.67 3.5275 -21.34 2.8675 -21 2.1875 C-18.96875 1.80859375 -18.96875 1.80859375 -16.5 1.625 C-10.82648462 1.18512302 -6.08095873 0.00373983 0 0 Z " fill="#D17A31" transform="translate(247,80.8125)"/>
<path d="M0 0 C0.8244973 2.35354106 1.10900467 3.63981439 0.37744141 6.05712891 C-1.4474049 9.2988054 -2.83177595 11.50644609 -6.33691406 12.98730469 C-9.09811018 13.6135027 -11.81449511 14.03421671 -14.625 14.375 C-16.51382891 14.64811445 -18.40190036 14.92653419 -20.2890625 15.2109375 C-21.12131348 15.31712402 -21.95356445 15.42331055 -22.81103516 15.53271484 C-25.27728942 15.91852511 -25.27728942 15.91852511 -28 18 C-31.1875 18.125 -31.1875 18.125 -34 18 C-34 18.66 -34 19.32 -34 20 C-36.97 20.66 -39.94 21.32 -43 22 C-42.67 20.68 -42.34 19.36 -42 18 C-39.05078125 16.5859375 -39.05078125 16.5859375 -35.3125 15.375 C-34.09175781 14.97023438 -32.87101562 14.56546875 -31.61328125 14.1484375 C-30.42089844 13.76945312 -29.22851562 13.39046875 -28 13 C-27.03191406 12.64421875 -26.06382813 12.2884375 -25.06640625 11.921875 C-21.27079249 10.78077328 -17.55480595 10.30848673 -13.625 9.875 C-12.88894531 9.78863281 -12.15289062 9.70226562 -11.39453125 9.61328125 C-9.59700818 9.40318115 -7.79858658 9.20079233 -6 9 C-6 8.34 -6 7.68 -6 7 C-5.34 7 -4.68 7 -4 7 C-3.71125 6.21625 -3.4225 5.4325 -3.125 4.625 C-2 2 -2 2 0 0 Z " fill="#E4792F" transform="translate(130,73)"/>
<path d="M0 0 C1.65 0 3.3 0 5 0 C5.268125 0.804375 5.53625 1.60875 5.8125 2.4375 C6.204375 3.283125 6.59625 4.12875 7 5 C7.99 5.33 8.98 5.66 10 6 C11.95542188 8.98459129 12 10.26414791 12 14 C12.61875 14.0825 13.2375 14.165 13.875 14.25 C16 15 16 15 17.25 16.8125 C18 19 18 19 18 23 C18.66 23 19.32 23 20 23 C20 23.99 20 24.98 20 26 C20.66 26 21.32 26 22 26 C22.268125 26.598125 22.53625 27.19625 22.8125 27.8125 C24.71162349 31.31088537 26.20036361 32.73345454 30 34 C30 35.32 30 36.64 30 38 C30.99 38 31.98 38 33 38 C33.33 38.99 33.66 39.98 34 41 C28.71860321 39.51460715 24.71945899 35.91327696 21 32 C21 31.34 21 30.68 21 30 C20.01 29.67 19.02 29.34 18 29 C16.52205544 26.60016923 15.20890903 24.25507679 13.9375 21.75 C13.4105957 20.74646484 13.4105957 20.74646484 12.87304688 19.72265625 C11.04901889 16.212523 9.38785043 12.71052239 8 9 C7.34 9 6.68 9 6 9 C5.7525 8.4225 5.505 7.845 5.25 7.25 C3.83530186 4.70354336 2.08439228 3.01491254 0 1 C0 0.67 0 0.34 0 0 Z " fill="#E28135" transform="translate(303,105)"/>
<path d="M0 0 C-4.72540541 3.81081081 -4.72540541 3.81081081 -6.984375 5.3671875 C-16.81810369 12.37633454 -24.60966773 22.33220756 -28 34 C-28.28359375 34.96808594 -28.5671875 35.93617188 -28.859375 36.93359375 C-30.56785298 43.25979759 -31.58063909 49.46375407 -32 56 C-32.33 56 -32.66 56 -33 56 C-33.05819424 52.75007554 -33.09366116 49.50028565 -33.125 46.25 C-33.14175781 45.32960937 -33.15851563 44.40921875 -33.17578125 43.4609375 C-33.18544922 42.12675781 -33.18544922 42.12675781 -33.1953125 40.765625 C-33.20578613 39.94868164 -33.21625977 39.13173828 -33.22705078 38.29003906 C-32.97829916 35.78112482 -32.25700129 34.16604375 -31 32 C-30.34 32 -29.68 32 -29 32 C-28.67 28.7 -28.34 25.4 -28 22 C-27.34 22 -26.68 22 -26 22 C-25.67 21.01 -25.34 20.02 -25 19 C-24.34 19 -23.68 19 -23 19 C-22.34 17.35 -21.68 15.7 -21 14 C-20.01 14 -19.02 14 -18 14 C-18 12.02 -18 10.04 -18 8 C-17.38125 7.9175 -16.7625 7.835 -16.125 7.75 C-15.42375 7.5025 -14.7225 7.255 -14 7 C-13.566875 6.071875 -13.566875 6.071875 -13.125 5.125 C-10.46628344 0.10297982 -5.18553685 -0.37039549 0 0 Z " fill="#E29655" transform="translate(113,156)"/>
<path d="M0 0 C0 0.33 0 0.66 0 1 C-2.37528151 0.85796663 -4.75015251 0.71148388 -7.125 0.5625 C-7.79015625 0.52318359 -8.4553125 0.48386719 -9.140625 0.44335938 C-11.97636532 0.26265043 -14.7344834 0.05409052 -17.52148438 -0.51367188 C-22.5260732 -1.21335891 -27.47665897 -1.12216678 -32.5234375 -1.09765625 C-33.62475006 -1.0962413 -34.72606262 -1.09482635 -35.86074829 -1.09336853 C-39.36552692 -1.08778752 -42.8702408 -1.07523846 -46.375 -1.0625 C-48.75650949 -1.05748255 -51.13801999 -1.05292007 -53.51953125 -1.04882812 C-59.34637612 -1.03782431 -65.17318343 -1.02110507 -71 -1 C-71 -1.33 -71 -1.66 -71 -2 C-47.35206994 -5.36846383 -23.18952923 -7.38724615 0 0 Z " fill="#E7A06F" transform="translate(287,19)"/>
<path d="M0 0 C0.33 0 0.66 0 1 0 C1.8799568 19.22908684 -0.3776699 35.1361225 -10 52 C-11.38254904 47.85235288 -10.72364288 44.67342415 -9 40.6875 C-8 39 -8 39 -7 38 C-6.5852728 34.20713123 -6.22744608 30.41662412 -5.92578125 26.61328125 C-5.84972656 25.81535156 -5.77367187 25.01742187 -5.6953125 24.1953125 C-5.63359863 23.46328613 -5.57188477 22.73125977 -5.50830078 21.97705078 C-4.88351175 19.54691554 -3.75621729 18.74023351 -2 17 C-1.41385971 15.08526623 -1.41385971 15.08526623 -1.26953125 12.98828125 C-1.18896484 12.23095703 -1.10839844 11.47363281 -1.02539062 10.69335938 C-0.92000977 9.51483398 -0.92000977 9.51483398 -0.8125 8.3125 C-0.73064453 7.51521484 -0.64878906 6.71792969 -0.56445312 5.89648438 C-0.36449155 3.932156 -0.18067746 1.96619588 0 0 Z " fill="#E56C18" transform="translate(481,213)"/>
<path d="M0 0 C2.52407357 2.33710516 4.56554349 4.73567811 6.5 7.5625 C8.39222398 10.30417438 10.26121061 12.07270377 13 14 C13 14.66 13 15.32 13 16 C13.86963379 16.42804932 13.86963379 16.42804932 14.75683594 16.86474609 C16.83408121 17.91602935 18.86349909 19.01971723 20.890625 20.1640625 C21.95410156 20.76347656 21.95410156 20.76347656 23.0390625 21.375 C23.76867187 21.7875 24.49828125 22.2 25.25 22.625 C25.99507812 23.04523438 26.74015625 23.46546875 27.5078125 23.8984375 C29.33902763 24.93143065 31.16957944 25.96559955 33 27 C32.01 27.66 31.02 28.32 30 29 C30 28.34 30 27.68 30 27 C29.41992188 26.96261719 28.83984375 26.92523438 28.2421875 26.88671875 C22.36034171 26.39171193 17.98887918 25.26742559 13.1875 21.625 C11.63551717 19.50123403 11.34848234 17.57876935 11 15 C9.68 14.67 8.36 14.34 7 14 C6.67 12.68 6.34 11.36 6 10 C5.38125 9.938125 4.7625 9.87625 4.125 9.8125 C2 9 2 9 0.75 6.6875 C0 4 0 4 0 0 Z " fill="#E08C49" transform="translate(89,236)"/>
<path d="M0 0 C15.18 0 30.36 0 46 0 C46 0.66 46 1.32 46 2 C31.48 2 16.96 2 2 2 C2 9.59 2 17.18 2 25 C1.67 25 1.34 25 1 25 C-0.37108712 16.7734773 0 8.33999734 0 0 Z " fill="#CF7638" transform="translate(146,399)"/>
<path d="M0 0 C17.41871115 1.8082984 34.99828568 11.97663255 49 22 C49.495 22.99 49.495 22.99 50 24 C48.68 24 47.36 24 46 24 C46 23.34 46 22.68 46 22 C44.906875 21.896875 43.81375 21.79375 42.6875 21.6875 C38.87713346 20.97709268 38.38262908 20.70753305 36 18 C33.40084462 16.80972016 33.40084462 16.80972016 31 16 C31 15.01 31 14.02 31 13 C29.68 13 28.36 13 27 13 C27 12.34 27 11.68 27 11 C26.41734375 10.82984375 25.8346875 10.6596875 25.234375 10.484375 C18.43669796 8.47499877 11.71388257 6.2725685 5 4 C5 3.34 5 2.68 5 2 C3.35 1.67 1.7 1.34 0 1 C0 0.67 0 0.34 0 0 Z " fill="#E49A66" transform="translate(287,20)"/>
<path d="M0 0 C0.33 0 0.66 0 1 0 C1.01213028 0.87656754 1.01213028 0.87656754 1.02450562 1.77084351 C1.11037564 7.83768975 1.20987075 13.90420259 1.31738281 19.97070312 C1.35573271 22.23659682 1.39057483 24.50255265 1.421875 26.76855469 C1.46739527 30.02040867 1.52541076 33.2718326 1.5859375 36.5234375 C1.59748871 37.54118256 1.60903992 38.55892761 1.62094116 39.60751343 C1.64081085 40.54833771 1.66068054 41.48916199 1.68115234 42.45849609 C1.70113785 43.70425919 1.70113785 43.70425919 1.7215271 44.97518921 C1.82335542 47.22613614 1.82335542 47.22613614 4 49 C4.66796875 51.0234375 4.66796875 51.0234375 5.1875 53.375 C5.36667969 54.14585937 5.54585938 54.91671875 5.73046875 55.7109375 C6.01304909 58.11082272 5.73503321 59.71670535 5 62 C5.99 62 6.98 62 8 62 C8.66 64.64 9.32 67.28 10 70 C10.66 70 11.32 70 12 70 C12.33 72.31 12.66 74.62 13 77 C5.16188922 69.83372728 2.49962834 63.62652865 1.359375 52.9765625 C1.1788002 50.07695098 1.1788002 50.07695098 0 48 C-0.08991092 46.45772144 -0.11756961 44.91159105 -0.11352539 43.36669922 C-0.11344986 42.40585419 -0.11337433 41.44500916 -0.11329651 40.45504761 C-0.10813522 39.41542877 -0.10297394 38.37580994 -0.09765625 37.3046875 C-0.0962413 36.24210724 -0.09482635 35.17952698 -0.09336853 34.08474731 C-0.08775834 30.68146991 -0.07520409 27.27825762 -0.0625 23.875 C-0.05748631 21.57161553 -0.05292318 19.26823003 -0.04882812 16.96484375 C-0.0377856 11.30987351 -0.02103752 5.65494141 0 0 Z " fill="#E56C13" transform="translate(81,395)"/>
<path d="M0 0 C0.33 0.99 0.66 1.98 1 3 C1.66 3.33 2.32 3.66 3 4 C-4.01715512 13.91502463 -13.77539094 25.50527099 -26.11328125 28.515625 C-28.0625 28.8125 -28.0625 28.8125 -31 29 C-29.68 28.34 -28.36 27.68 -27 27 C-27 26.01 -27 25.02 -27 24 C-25.68 24 -24.36 24 -23 24 C-22.67 23.01 -22.34 22.02 -22 21 C-20.63875 20.566875 -20.63875 20.566875 -19.25 20.125 C-15.83455475 19.20774355 -15.83455475 19.20774355 -13.4375 16.4375 C-10.83539413 13.83539413 -9.59126778 13.30782295 -6 13 C-6 12.34 -6 11.68 -6 11 C-5.34 11 -4.68 11 -4 11 C-4 10.34 -4 9.68 -4 9 C-3.34 9 -2.68 9 -2 9 C-1.855625 7.700625 -1.71125 6.40125 -1.5625 5.0625 C-1.125 1.125 -1.125 1.125 0 0 Z " fill="#DE833A" transform="translate(406,461)"/>
<path d="M0 0 C0 0.66 0 1.32 0 2 C-6.00539765 5.46465249 -12.58848802 5.14171056 -19.31005859 5.11352539 C-20.22777039 5.11367142 -21.14548218 5.11381744 -22.09100342 5.1139679 C-25.11017255 5.11327384 -28.12927921 5.10550523 -31.1484375 5.09765625 C-33.24736497 5.09579027 -35.34629288 5.09436722 -37.44522095 5.09336853 C-42.95909842 5.08955754 -48.47294938 5.07973938 -53.98681641 5.06866455 C-59.61750937 5.05841992 -65.24820664 5.05386437 -70.87890625 5.04882812 C-81.91928245 5.03811582 -92.95963902 5.02105645 -104 5 C-104 4.67 -104 4.34 -104 4 C-102.90498672 3.98969254 -101.80997345 3.97938507 -100.68177795 3.96876526 C-90.33907915 3.87081338 -79.99643758 3.76805978 -69.65383244 3.66066074 C-64.33719418 3.60560486 -59.02055028 3.5522136 -53.70385742 3.50268555 C-48.56855692 3.45478504 -43.43331894 3.40243485 -38.2980938 3.34705925 C-36.34341435 3.32675149 -34.38871784 3.3080202 -32.43400764 3.29092598 C-29.68649285 3.26662356 -26.93909337 3.23660722 -24.19165039 3.20532227 C-23.39179214 3.1995668 -22.5919339 3.19381134 -21.76783752 3.18788147 C-14.28141426 3.09161218 -6.67287064 0 0 0 Z " fill="#E66E14" transform="translate(379,486)"/>
<path d="M0 0 C0.66 0.33 1.32 0.66 2 1 C-0.87444093 4.03413209 -3.29141347 6.14570673 -7 8 C-7.33 8.99 -7.66 9.98 -8 11 C-10.31847874 11.7166207 -12.65319703 12.38242027 -15 13 C-15.66 13.66 -16.32 14.32 -17 15 C-17.680625 15.165 -18.36125 15.33 -19.0625 15.5 C-19.701875 15.665 -20.34125 15.83 -21 16 C-21.33 16.66 -21.66 17.32 -22 18 C-24.32156597 18.40729228 -26.6568787 18.74438677 -29 19 C-22.64471286 12.40083051 -15.00015512 7.8426402 -7 3.5 C-6.34088623 3.13745117 -5.68177246 2.77490234 -5.00268555 2.40136719 C-3.36829622 1.53518972 -1.6868063 0.75906284 0 0 Z " fill="#E86B16" transform="translate(186,27)"/>
<path d="M0 0 C0.33 0 0.66 0 1 0 C2.07114463 34.70920568 2.07114463 34.70920568 -7 45 C-7 43.35 -7 41.7 -7 40 C-6.01 39.505 -6.01 39.505 -5 39 C-4.6029918 36.0616675 -4.6029918 36.0616675 -4.5 32.5625 C-4.20709205 27.46487393 -3.65086491 22.70350641 -2.54296875 17.73046875 C-1.37901706 11.87721528 -0.74185314 5.91904098 0 0 Z " fill="#D9844E" transform="translate(416,418)"/>
<path d="M0 0 C3.96 1.98 3.96 1.98 8 4 C8 4.66 8 5.32 8 6 C8.80824219 6.08894531 8.80824219 6.08894531 9.6328125 6.1796875 C13.04702531 7.36283055 15.30115594 9.68291032 17.875 12.125 C18.40512695 12.61911377 18.93525391 13.11322754 19.48144531 13.62231445 C23.2751558 17.20092365 26.73917566 20.92396957 30 25 C26.68847126 25.36794764 25.39390748 25.29809215 22.6875 23.25 C21 21 21 21 21 17 C19.68 17 18.36 17 17 17 C17 15.68 17 14.36 17 13 C14.69 12.34 12.38 11.68 10 11 C10 10.34 10 9.68 10 9 C8.35 8.67 6.7 8.34 5 8 C5 6.68 5 5.36 5 4 C3.35 3.67 1.7 3.34 0 3 C0 2.01 0 1.02 0 0 Z " fill="#E48D55" transform="translate(423,99)"/>
<path d="M0 0 C5.625 -0.25 5.625 -0.25 9 2 C9 2.99 9 3.98 9 5 C10.98 5 12.96 5 15 5 C15.33 6.98 15.66 8.96 16 11 C16.66 11 17.32 11 18 11 C18.103125 11.639375 18.20625 12.27875 18.3125 12.9375 C18.539375 13.618125 18.76625 14.29875 19 15 C19.99 15.33 20.98 15.66 22 16 C22.33 17.65 22.66 19.3 23 21 C23.99 21.33 24.98 21.66 26 22 C26 23.32 26 24.64 26 26 C26.66 26.33 27.32 26.66 28 27 C27.34 27.66 26.68 28.32 26 29 C24.87344187 27.08424874 23.74881313 25.16736281 22.625 23.25 C21.99851562 22.18265625 21.37203125 21.1153125 20.7265625 20.015625 C19 17 19 17 18.0234375 14.734375 C16.69499634 12.48312357 15.35376648 12.07068199 13 11 C11.65607334 9.89119371 10.34420262 8.74268162 9.0625 7.5625 C6.18835978 4.97845991 3.37983108 2.90115498 0 1 C0 0.67 0 0.34 0 0 Z " fill="#E18C4C" transform="translate(384,156)"/>
<path d="M0 0 C0.66 0 1.32 0 2 0 C2 5.61 2 11.22 2 17 C1.67 17 1.34 17 1 17 C-0.18135474 23.48349807 -0.11322974 29.86214507 -0.0625 36.4375 C-0.05798828 37.55060547 -0.05347656 38.66371094 -0.04882812 39.81054688 C-0.03711193 42.54042101 -0.02070699 45.27018174 0 48 C-0.33 48 -0.66 48 -1 48 C-2.12595876 40.89887854 -2.18385967 33.98759955 -2.1875 26.8125 C-2.19974609 25.56146484 -2.21199219 24.31042969 -2.22460938 23.02148438 C-2.23691239 15.14345143 -1.5808785 7.71988202 0 0 Z " fill="#E1965C" transform="translate(14,181)"/>
<path d="M0 0 C0.86753906 0.14566406 1.73507812 0.29132813 2.62890625 0.44140625 C9.92450657 1.48520725 17.33458281 1.72158782 24.68554688 2.16210938 C40.61217292 3.20912969 40.61217292 3.20912969 45 6.5 C46 8 46 8 46 10 C45.12988281 9.70222656 44.25976562 9.40445313 43.36328125 9.09765625 C34.29536527 6.13820864 25.60734735 4.78019512 16.12597656 4.41601562 C10.42705523 4.14997902 5.33599993 3.08457983 0 1 C0 0.67 0 0.34 0 0 Z " fill="#DF9962" transform="translate(337,146)"/>
<path d="M0 0 C1.94229492 0.00676758 1.94229492 0.00676758 3.92382812 0.01367188 C7.095101 0.02537399 10.26627546 0.04176887 13.4375 0.0625 C13.4375 0.7225 13.4375 1.3825 13.4375 2.0625 C12.65511963 2.05726318 11.87273926 2.05202637 11.06665039 2.04663086 C7.54444167 2.02592894 4.0222457 2.01286162 0.5 2 C-0.73169922 1.99162109 -1.96339844 1.98324219 -3.23242188 1.97460938 C-4.40224609 1.97138672 -5.57207031 1.96816406 -6.77734375 1.96484375 C-7.86136475 1.95960693 -8.94538574 1.95437012 -10.06225586 1.94897461 C-12.50299948 1.77823103 -12.50299948 1.77823103 -13.5625 3.0625 C-15.08178038 3.13429964 -16.60417482 3.14642007 -18.125 3.125 C-18.95128906 3.11597656 -19.77757812 3.10695313 -20.62890625 3.09765625 C-21.26699219 3.08605469 -21.90507812 3.07445313 -22.5625 3.0625 C-22.8925 4.0525 -23.2225 5.0425 -23.5625 6.0625 C-26.8625 6.3925 -30.1625 6.7225 -33.5625 7.0625 C-33.5625 7.7225 -33.5625 8.3825 -33.5625 9.0625 C-34.5525 8.7325 -35.5425 8.4025 -36.5625 8.0625 C-31.8125 5.0625 -31.8125 5.0625 -29.5625 5.0625 C-29.5625 4.4025 -29.5625 3.7425 -29.5625 3.0625 C-20.04423216 -0.59837225 -10.03790701 -0.06674823 0 0 Z " fill="#EB6D11" transform="translate(248.5625,79.9375)"/>
<path d="M0 0 C3.63 0.33 7.26 0.66 11 1 C11 1.66 11 2.32 11 3 C13.97 3.495 13.97 3.495 17 4 C17.04125 4.598125 17.0825 5.19625 17.125 5.8125 C17.87739901 8.35100832 17.87739901 8.35100832 21.0625 9.75 C22.5165625 10.36875 22.5165625 10.36875 24 11 C19.57786653 12.53462166 16.90478443 11.1487925 12.75 9.38671875 C8.17673829 7.08059956 3.97739807 4.2242312 0 1 C0 0.67 0 0.34 0 0 Z " fill="#E97E2A" transform="translate(101,479)"/>
<path d="M0 0 C2.70860274 3.61147032 4.05842151 6.28078099 5.625 10.4375 C6.05039063 11.54996094 6.47578125 12.66242188 6.9140625 13.80859375 C8.63244475 18.85865958 9.12201424 23.27888212 9.09765625 28.61328125 C9.09443359 29.86044922 9.09121094 31.10761719 9.08789062 32.39257812 C9.07951172 33.68615234 9.07113281 34.97972656 9.0625 36.3125 C9.05798828 37.62541016 9.05347656 38.93832031 9.04882812 40.29101562 C9.03705949 43.5273901 9.0206176 46.76367178 9 50 C8.67 50 8.34 50 8 50 C7.67 42.08 7.34 34.16 7 26 C6.67 26 6.34 26 6 26 C5.67 21.38 5.34 16.76 5 12 C3.68 12 2.36 12 1 12 C0.67 8.04 0.34 4.08 0 0 Z " fill="#E99F67" transform="translate(139,281)"/>
<path d="M0 0 C1.65 0.33 3.3 0.66 5 1 C-5.29627687 19.31934976 -5.29627687 19.31934976 -10 26 C-10.33 26 -10.66 26 -11 26 C-11 24.35 -11 22.7 -11 21 C-10.01 21 -9.02 21 -8 21 C-8 19.68 -8 18.36 -8 17 C-7.34 17 -6.68 17 -6 17 C-5.97421875 16.32453125 -5.9484375 15.6490625 -5.921875 14.953125 C-5.45114549 7.54983356 -5.45114549 7.54983356 -3 4.5625 C-2.34 4.046875 -1.68 3.53125 -1 3 C-0.67 2.01 -0.34 1.02 0 0 Z " fill="#E1711D" transform="translate(183,111)"/>
<path d="M0 0 C0.66 0.33 1.32 0.66 2 1 C0.88200014 2.33920838 -0.24461897 3.67122556 -1.375 5 C-2.31472656 6.11375 -2.31472656 6.11375 -3.2734375 7.25 C-3.84320313 7.8275 -4.41296875 8.405 -5 9 C-5.66 9 -6.32 9 -7 9 C-7 9.66 -7 10.32 -7 11 C-7.66 11 -8.32 11 -9 11 C-9.37125 11.804375 -9.37125 11.804375 -9.75 12.625 C-12.43865028 17.73343553 -15.19005538 21.70898526 -20 25 C-20.66 25 -21.32 25 -22 25 C-22 25.66 -22 26.32 -22 27 C-22.66 27 -23.32 27 -24 27 C-22.43988817 23.5222507 -20.36827674 20.72775973 -18 17.75 C-17.29875 16.85796875 -16.5975 15.9659375 -15.875 15.046875 C-15.25625 14.37140625 -14.6375 13.6959375 -14 13 C-13.34 13 -12.68 13 -12 13 C-11.7525 12.41476563 -11.505 11.82953125 -11.25 11.2265625 C-9.81592202 8.67211111 -8.24285666 7.24679581 -6 5.375 C-3.92339664 3.6266832 -1.92037235 1.92037235 0 0 Z " fill="#E49056" transform="translate(155,46)"/>
<path d="M0 0 C0.66 0 1.32 0 2 0 C2 0.66 2 1.32 2 2 C3.32 2 4.64 2 6 2 C6 3.32 6 4.64 6 6 C6.66 6 7.32 6 8 6 C8 6.66 8 7.32 8 8 C8.99 7.67 9.98 7.34 11 7 C11 8.65 11 10.3 11 12 C12.32 11.67 13.64 11.34 15 11 C15 11.66 15 12.32 15 13 C15.99 13.33 16.98 13.66 18 14 C18 15.65 18 17.3 18 19 C19.32 19 20.64 19 22 19 C22 19.99 22 20.98 22 22 C22.66 22.33 23.32 22.66 24 23 C18.46847245 23 14.78128862 17.70162664 11 14 C1.39307359 4.17922078 1.39307359 4.17922078 0 0 Z " fill="#E08037" transform="translate(37,282)"/>
<path d="M0 0 C1.25490234 0.69996094 1.25490234 0.69996094 2.53515625 1.4140625 C6.24088405 3.11025809 9.41804802 3.75164088 13.4375 4.375 C33.8121827 7.8121827 33.8121827 7.8121827 39 13 C36.5610236 12.71800273 34.12429067 12.42484385 31.6875 12.125 C30.99720703 12.04636719 30.30691406 11.96773437 29.59570312 11.88671875 C26.04360529 11.44056153 24.0302971 11.02019807 21 9 C21 8.34 21 7.68 21 7 C20.28714844 7.01160156 19.57429688 7.02320312 18.83984375 7.03515625 C4.75182482 7.16788321 4.75182482 7.16788321 0 4 C0 2.68 0 1.36 0 0 Z " fill="#E49A63" transform="translate(370,79)"/>
<path d="M0 0 C0.33 0 0.66 0 1 0 C0.88556397 2.0839403 0.75804453 4.16716493 0.625 6.25 C0.55539062 7.41015625 0.48578125 8.5703125 0.4140625 9.765625 C0.03751692 12.70694334 -0.4774123 14.49949011 -2 17 C-2.66 17 -3.32 17 -4 17 C-4.061875 17.721875 -4.12375 18.44375 -4.1875 19.1875 C-5.27224543 22.94238801 -7.03212965 24.50429084 -10 27 C-12.8125 28.3125 -12.8125 28.3125 -15 29 C-14.175 28.01 -13.35 27.02 -12.5 26 C-9.37501716 21.84578653 -7.01306562 17.44256634 -4.6875 12.8125 C-4.33816406 12.12349609 -3.98882812 11.43449219 -3.62890625 10.72460938 C-1.87945451 7.16716125 -0.53249999 3.97445646 0 0 Z " fill="#E48333" transform="translate(413,219)"/>
<path d="M0 0 C0.66 0 1.32 0 2 0 C1.40734427 3.42893671 0.51519427 6.37798523 -0.875 9.5625 C-4.50097848 18.43625823 -6.38729928 27.45031981 -7 37 C-7.33 37 -7.66 37 -8 37 C-8.05819424 33.75007554 -8.09366116 30.50028565 -8.125 27.25 C-8.14175781 26.32960937 -8.15851563 25.40921875 -8.17578125 24.4609375 C-8.18222656 23.57148438 -8.18867187 22.68203125 -8.1953125 21.765625 C-8.20578613 20.94868164 -8.21625977 20.13173828 -8.22705078 19.29003906 C-7.97829916 16.78112482 -7.25700129 15.16604375 -6 13 C-5.34 13 -4.68 13 -4 13 C-3.67 9.7 -3.34 6.4 -3 3 C-2.34 3 -1.68 3 -1 3 C-0.67 2.01 -0.34 1.02 0 0 Z " fill="#DE8D4E" transform="translate(88,175)"/>
<path d="M0 0 C0.66 0.33 1.32 0.66 2 1 C1.3503125 1.5878125 1.3503125 1.5878125 0.6875 2.1875 C-1.1048722 3.97755989 -1.1048722 3.97755989 -2.375 6.375 C-5.12628293 10.81938011 -8.27963148 13.80840033 -13 16 C-13.33 16.66 -13.66 17.32 -14 18 C-14.66 17.67 -15.32 17.34 -16 17 C-14.4722133 13.56247993 -12.49818944 10.81046312 -10 8 C-9.34 8 -8.68 8 -8 8 C-7.6596875 7.1028125 -7.6596875 7.1028125 -7.3125 6.1875 C-5.65731747 3.42886244 -3.79815679 2.50669981 -1 1 C-0.67 0.67 -0.34 0.34 0 0 Z " fill="#E87724" transform="translate(54,114)"/>
<path d="M0 0 C0.84132214 2.38463919 1.10522708 3.6562582 0.35546875 6.10546875 C-2.70465116 11.56046512 -2.70465116 11.56046512 -6.17578125 12.73828125 C-8.81390122 13.02018562 -11.34737627 13.05588393 -14 13 C-15.0209375 13.01160156 -16.041875 13.02320312 -17.09375 13.03515625 C-19.73106419 13.05894646 -22.363107 13.04511794 -25 13 C-21.34271595 10.56181064 -18.06712105 10.3283308 -13.8125 9.875 C-13.06291016 9.78863281 -12.31332031 9.70226562 -11.54101562 9.61328125 C-9.69482588 9.40161618 -7.84750656 9.19984536 -6 9 C-6 8.34 -6 7.68 -6 7 C-5.34 7 -4.68 7 -4 7 C-3.71125 6.21625 -3.4225 5.4325 -3.125 4.625 C-2 2 -2 2 0 0 Z " fill="#E28A4A" transform="translate(130,73)"/>
<path d="M0 0 C0.66 0 1.32 0 2 0 C0.70336847 4.33922235 -0.95514051 7.92471993 -3.375 11.75 C-3.96023438 12.69359375 -4.54546875 13.6371875 -5.1484375 14.609375 C-7.03831701 17.0494726 -8.21733403 17.83014451 -11 19 C-12.37086915 20.29470975 -13.71340837 21.62150897 -15 23 C-15 22.01 -15 21.02 -15 20 C-14.34 20 -13.68 20 -13 20 C-13 19.01 -13 18.02 -13 17 C-12.34 17 -11.68 17 -11 17 C-11 15.35 -11 13.7 -11 12 C-9.68 11.67 -8.36 11.34 -7 11 C-7 10.34 -7 9.68 -7 9 C-5.35 8.34 -3.7 7.68 -2 7 C-2 5.35 -2 3.7 -2 2 C-1.34 2 -0.68 2 0 2 C0 1.34 0 0.68 0 0 Z " fill="#E28034" transform="translate(468,265)"/>
<path d="M0 0 C0.99 0.33 1.98 0.66 3 1 C4.09765625 3.25 4.09765625 3.25 5.0625 6 C6.1378989 9.75961169 6.1378989 9.75961169 9 12 C9 12.99 9 13.98 9 15 C10.65 15.33 12.3 15.66 14 16 C14.33 19.3 14.66 22.6 15 26 C11.60147174 22.88278168 9.31985273 19.56345596 6.9375 15.625 C5.93009766 13.97371094 5.93009766 13.97371094 4.90234375 12.2890625 C0 3.81314168 0 3.81314168 0 0 Z " fill="#E2A169" transform="translate(22,256)"/>
<path d="M0 0 C6.15234375 0.5859375 6.15234375 0.5859375 8 1 C9.63647556 4.27295113 9.47637564 7.89676259 9.6875 11.5 C9.75892212 12.71598877 9.75892212 12.71598877 9.83178711 13.95654297 C10.10729387 19.88260453 9.73672472 25.28746744 8 31 C7.67 31 7.34 31 7 31 C7 22.09 7 13.18 7 4 C5.68 3.34 4.36 2.68 3 2 C2.01 1.34 1.02 0.68 0 0 Z " fill="#E38626" transform="translate(72,315)"/>
<path d="M0 0 C2.78388975 1.70625501 3.85384206 2.47626739 4.75 5.6875 C4.8325 6.450625 4.915 7.21375 5 8 C5.33 8 5.66 8 6 8 C6.33774332 10.22850277 6.6700187 12.45783467 7 14.6875 C7.185625 15.92886719 7.37125 17.17023438 7.5625 18.44921875 C7.92100411 21.35886371 8.08942256 24.07700022 8 27 C5.72972121 23.59458181 4.63416115 20.17945547 3.4375 16.3125 C3.21642578 15.62994141 2.99535156 14.94738281 2.76757812 14.24414062 C1.28353775 9.49610812 0.49448498 4.9504058 0 0 Z " fill="#E18644" transform="translate(14,229)"/>
<path d="M0 0 C0.66 0 1.32 0 2 0 C2 0.99 2 1.98 2 3 C1.401875 3.268125 0.80375 3.53625 0.1875 3.8125 C-2.04327908 4.8893979 -2.04327908 4.8893979 -3.625 6.625 C-4.07875 7.07875 -4.5325 7.5325 -5 8 C-5.66 8 -6.32 8 -7 8 C-7 8.99 -7 9.98 -7 11 C-7.66 11 -8.32 11 -9 11 C-9 11.66 -9 12.32 -9 13 C-12.08809695 14.76462683 -13.23312136 15 -17 15 C-17 15.99 -17 16.98 -17 18 C-17.99 17.67 -18.98 17.34 -20 17 C-19.34 17 -18.68 17 -18 17 C-18 16.01 -18 15.02 -18 14 C-17.34 14 -16.68 14 -16 14 C-16 13.34 -16 12.68 -16 12 C-15.34 11.67 -14.68 11.34 -14 11 C-13.773125 10.360625 -13.54625 9.72125 -13.3125 9.0625 C-12 7 -12 7 -8.6875 6.0625 C-4.47526906 4.84880634 -2.91840564 3.16855469 0 0 Z " fill="#F16B06" transform="translate(445,293)"/>
<path d="M0 0 C7.25910694 -0.02543756 14.5182023 -0.04290364 21.77734375 -0.05493164 C24.24479604 -0.0599481 26.71224537 -0.06676281 29.1796875 -0.07543945 C32.73438244 -0.08762288 36.28903793 -0.0932553 39.84375 -0.09765625 C40.93989624 -0.10281754 42.03604248 -0.10797882 43.16540527 -0.11329651 C48.87641255 -0.11371109 54.35231154 0.13914453 60 1 C59.34 2.32 58.68 3.64 58 5 C58 4.34 58 3.68 58 3 C50.8334584 2.16595279 43.7347706 1.80431489 36.5234375 1.68359375 C34.94654648 1.6524221 34.94654648 1.6524221 33.33779907 1.62062073 C30.01692523 1.55582764 26.69598005 1.49657072 23.375 1.4375 C21.10806587 1.39424779 18.84113866 1.3506315 16.57421875 1.30664062 C11.0495521 1.20021951 5.52481628 1.09832976 0 1 C0 0.67 0 0.34 0 0 Z " fill="#F06C0B" transform="translate(292,397)"/>
<path d="M0 0 C0 3 0 3 -1 5 C-1.66 5 -2.32 5 -3 5 C-3.33 5.99 -3.66 6.98 -4 8 C-7.0051552 10.39046436 -9.00672335 11.91362812 -12.875 12.25 C-13.57625 12.1675 -14.2775 12.085 -15 12 C-15.12375 12.639375 -15.2475 13.27875 -15.375 13.9375 C-15.58125 14.618125 -15.7875 15.29875 -16 16 C-18.70879335 17.35439668 -21.00933268 17.06501451 -24 17 C-21.17760198 13.92759936 -18.5330604 12.05046459 -14.8125 10.1875 C-9.37791185 7.3314194 -4.70445683 3.92618866 0 0 Z " fill="#E39A59" transform="translate(397,248)"/>
<path d="M0 0 C1.32 0 2.64 0 4 0 C4 0.66 4 1.32 4 2 C4.66 2 5.32 2 6 2 C6 2.66 6 3.32 6 4 C7.423125 4.2165625 7.423125 4.2165625 8.875 4.4375 C12 5 12 5 14 6 C14 6.66 14 7.32 14 8 C14.99 8.33 15.98 8.66 17 9 C17.33333333 10.33333333 17.66666667 11.66666667 18 13 C18.99 13.33 19.98 13.66 21 14 C20.34 14.66 19.68 15.32 19 16 C18.39414062 15.49210937 17.78828125 14.98421875 17.1640625 14.4609375 C11.38931138 9.71675735 5.51479096 5.65937194 -1 2 C-0.67 1.34 -0.34 0.68 0 0 Z " fill="#E37F38" transform="translate(283,89)"/>
<path d="M0 0 C0.625 1.8125 0.625 1.8125 1 4 C0.01 5.485 0.01 5.485 -1 7 C-1.66 7 -2.32 7 -3 7 C-4.68640693 15.62938016 -5.89392144 24.28080623 -7 33 C-7.33 33 -7.66 33 -8 33 C-9.7927347 20.00711088 -8.04449779 10.72599705 0 0 Z " fill="#E4833B" transform="translate(359,277)"/>
<path d="M0 0 C-0.99 0 -1.98 0 -3 0 C-3.33 0.99 -3.66 1.98 -4 3 C-5.32 3 -6.64 3 -8 3 C-8 3.66 -8 4.32 -8 5 C-10.1783456 6.0891728 -11.7203964 6.28032356 -14.1328125 6.53515625 C-15.34130859 6.66567383 -15.34130859 6.66567383 -16.57421875 6.79882812 C-17.41597656 6.88583984 -18.25773438 6.97285156 -19.125 7.0625 C-19.97449219 7.15337891 -20.82398438 7.24425781 -21.69921875 7.33789062 C-23.7991145 7.5620368 -25.89951293 7.78146448 -28 8 C-21.08223102 3.38815401 -8.27199746 -2.8278689 0 0 Z " fill="#E4701D" transform="translate(216,19)"/>
<path d="M0 0 C5.1920263 -0.07495152 10.38372787 -0.12897508 15.57617188 -0.16479492 C17.33729549 -0.17974968 19.09838274 -0.20012096 20.859375 -0.22631836 C30.99238435 -0.37313185 40.26751288 -0.27493023 50 3 C50 3.33 50 3.66 50 4 C47.62471849 3.85796663 45.24984749 3.71148388 42.875 3.5625 C42.20984375 3.52318359 41.5446875 3.48386719 40.859375 3.44335938 C37.93484484 3.25699226 35.0779069 3.01386938 32.19140625 2.5 C28.79260096 1.96750664 25.5083726 1.79008234 22.0703125 1.68359375 C20.13671875 1.62075195 20.13671875 1.62075195 18.1640625 1.55664062 C16.81771091 1.51683972 15.47135671 1.47712727 14.125 1.4375 C12.75519667 1.39424817 11.38540479 1.35063188 10.015625 1.30664062 C6.67717843 1.20084478 3.338661 1.09875628 0 1 C0 0.67 0 0.34 0 0 Z " fill="#DD6F26" transform="translate(237,16)"/>
<path d="M0 0 C6.93 0 13.86 0 21 0 C21 0.33 21 0.66 21 1 C19.77925781 1.08636719 18.55851562 1.17273438 17.30078125 1.26171875 C6.97296727 2.1029172 -1.51601263 3.66128437 -11 8 C-12.66350501 8.6745171 -14.3291761 9.34382189 -16 10 C-15.67 8.68 -15.34 7.36 -15 6 C-13.68 6 -12.36 6 -11 6 C-11 5.34 -11 4.68 -11 4 C-10.28972656 3.87882812 -9.57945312 3.75765625 -8.84765625 3.6328125 C-7.92855469 3.46523437 -7.00945312 3.29765625 -6.0625 3.125 C-5.14597656 2.96257812 -4.22945312 2.80015625 -3.28515625 2.6328125 C-2.53105469 2.42398438 -1.77695313 2.21515625 -1 2 C-0.67 1.34 -0.34 0.68 0 0 Z " fill="#E6A974" transform="translate(226,83)"/>
<path d="M0 0 C6.625 -0.25 6.625 -0.25 10 2 C12.46623324 2.31879114 12.46623324 2.31879114 15.2265625 2.30859375 C16.25910156 2.33373047 17.29164063 2.35886719 18.35546875 2.38476562 C20.51166474 2.41954298 22.66791952 2.45087076 24.82421875 2.47851562 C31.4023937 2.6456192 36.90527583 3.47071858 43 6 C43 6.33 43 6.66 43 7 C42.13246094 6.85304687 41.26492188 6.70609375 40.37109375 6.5546875 C36.74549258 6.03505143 33.12800677 5.79047075 29.47265625 5.5703125 C28.26802734 5.49683594 27.06339844 5.42335937 25.82226562 5.34765625 C23.32009745 5.1994759 20.81747186 5.05882341 18.31445312 4.92578125 C11.62397178 4.50382679 6.1137191 3.80052715 0 1 C0 0.67 0 0.34 0 0 Z " fill="#E36E18" transform="translate(336,144)"/>
<path d="M0 0 C3.6695036 3.2893298 5.88370205 6.87442777 8.25 11.125 C8.61351562 11.75792969 8.97703125 12.39085937 9.3515625 13.04296875 C12 17.7324953 12 17.7324953 12 20 C11.01 20 10.02 20 9 20 C9 19.34 9 18.68 9 18 C8.34 18 7.68 18 7 18 C6.32332002 16.75539217 5.65905281 15.50403104 5 14.25 C4.62875 13.55390625 4.2575 12.8578125 3.875 12.140625 C3 10 3 10 3 6 C2.34 6 1.68 6 1 6 C0.67 4.02 0.34 2.04 0 0 Z " fill="#E58741" transform="translate(460,133)"/>
<path d="M0 0 C1.32 0 2.64 0 4 0 C4 0.66 4 1.32 4 2 C5.423125 1.814375 5.423125 1.814375 6.875 1.625 C12.3764909 1.55721982 16.60621601 5.02955449 21 8 C20.01 8.66 19.02 9.32 18 10 C18 9.34 18 8.68 18 8 C17.41992188 7.96261719 16.83984375 7.92523438 16.2421875 7.88671875 C10.23798801 7.38141483 5.24623837 6.62061143 1.125 1.8125 C0.75375 1.214375 0.3825 0.61625 0 0 Z " fill="#E76D1A" transform="translate(101,255)"/>
<path d="M0 0 C0.33 0 0.66 0 1 0 C1.33773437 1.24136719 1.67546875 2.48273438 2.0234375 3.76171875 C2.4738061 5.4036876 2.92433539 7.04561237 3.375 8.6875 C3.59671875 9.50412109 3.8184375 10.32074219 4.046875 11.16210938 C5.16225346 15.2135576 6.31689487 19.13829618 8 23 C4.46244079 22.13951263 3.21410664 21.32485145 1.1875 18.25 C-0.99135722 12.50907844 -0.22571127 6.02732686 0 0 Z " fill="#E6843E" transform="translate(81,213)"/>
<path d="M0 0 C1 2 1 2 0.36328125 4.20703125 C-1.60375615 9.08440651 -3.4926648 13.00889443 -7 17 C-7.33 17.99 -7.66 18.98 -8 20 C-8.66 20 -9.32 20 -10 20 C-10.33 21.32 -10.66 22.64 -11 24 C-10.83686845 14.04897549 -5.85479528 7.70462323 0 0 Z " fill="#E48944" transform="translate(37,131)"/>
<path d="M0 0 C1.25683594 0.00322266 2.51367188 0.00644531 3.80859375 0.00976562 C5.12730469 0.01814453 6.44601563 0.02652344 7.8046875 0.03515625 C9.14452961 0.04017136 10.4843735 0.04473424 11.82421875 0.04882812 C15.10941956 0.06064539 18.39453147 0.07712008 21.6796875 0.09765625 C21.6796875 0.42765625 21.6796875 0.75765625 21.6796875 1.09765625 C20.68710938 1.13503906 19.69453125 1.17242187 18.671875 1.2109375 C7.70805575 1.7092312 -3.11486941 2.72389493 -13.3203125 7.09765625 C-13.3203125 6.10765625 -13.3203125 5.11765625 -13.3203125 4.09765625 C-12.0003125 4.09765625 -10.6803125 4.09765625 -9.3203125 4.09765625 C-8.9903125 3.10765625 -8.6603125 2.11765625 -8.3203125 1.09765625 C-5.50207058 -0.31146471 -3.14779968 -0.01417928 0 0 Z " fill="#E7A56D" transform="translate(127.3203125,148.90234375)"/>
<path d="M0 0 C4.49998618 -0.02922653 8.99994765 -0.04687482 13.5 -0.0625 C14.7684375 -0.07087891 16.036875 -0.07925781 17.34375 -0.08789062 C23.66083499 -0.10434137 29.75810372 -0.00091014 36 1 C36 1.33 36 1.66 36 2 C31.99868539 2.19376641 27.99699646 2.37223111 23.99438477 2.53710938 C22.63547903 2.59517538 21.27673897 2.65727511 19.91821289 2.72363281 C17.95508596 2.81879725 15.99119759 2.89781147 14.02734375 2.9765625 C12.25991821 3.05511475 12.25991821 3.05511475 10.45678711 3.13525391 C6.59412276 2.98411922 3.65811201 2.19690321 0 1 C0 0.67 0 0.34 0 0 Z " fill="#DA6B1A" transform="translate(312,398)"/>
<path d="M0 0 C5.94667786 3.59930502 13.85683716 8.71367433 17 15 C14.69 14.34 12.38 13.68 10 13 C10 12.34 10 11.68 10 11 C9.34 11 8.68 11 8 11 C8 10.34 8 9.68 8 9 C6.02 8.34 4.04 7.68 2 7 C2.33 6.01 2.66 5.02 3 4 C2.34 4 1.68 4 1 4 C0.67 2.68 0.34 1.36 0 0 Z " fill="#E48749" transform="translate(337,44)"/>
<path d="M0 0 C7.54138267 2.37014884 12.01174692 9.20672625 17 15 C16.67 15.66 16.34 16.32 16 17 C12.51566654 14.89319372 9.84567526 13.01758455 7.3125 9.8125 C5.24098294 6.78480031 5.24098294 6.78480031 2 6 C0.8125 2.9375 0.8125 2.9375 0 0 Z " fill="#E2904F" transform="translate(122,264)"/>
<path d="M0 0 C-0.99 0.33 -1.98 0.66 -3 1 C-3.33 1.99 -3.66 2.98 -4 4 C-7.37026169 6.86629733 -10.51034635 9.09310335 -15 8.8125 C-15.66 8.544375 -16.32 8.27625 -17 8 C-16.67 7.34 -16.34 6.68 -16 6 C-14.68 6 -13.36 6 -12 6 C-11.979375 5.401875 -11.95875 4.80375 -11.9375 4.1875 C-11 2 -11 2 -7.6875 0.1875 C-3.00266904 -1.32117438 -3.00266904 -1.32117438 0 0 Z " fill="#E18E4D" transform="translate(172,138)"/>
<path d="M0 0 C4.63804821 0.50104462 7.43803825 1.6195816 11.1875 4.375 C12.02667969 4.98085938 12.86585938 5.58671875 13.73046875 6.2109375 C15.63881747 7.71528124 17.33710094 9.23418536 19 11 C17.68 11 16.36 11 15 11 C15 10.34 15 9.68 15 9 C13.906875 8.896875 12.81375 8.79375 11.6875 8.6875 C7.87713346 7.97709268 7.38262908 7.70753305 5 5 C2.40084462 3.80972016 2.40084462 3.80972016 0 3 C0 2.01 0 1.02 0 0 Z " fill="#E38E4F" transform="translate(318,33)"/>
<path d="M0 0 C-2.07703063 5.19257658 -6.15924028 6.70530151 -11 9 C-12.97820098 9.72881089 -14.97097793 10.42771172 -17 11 C-13.70563424 4.56101238 -7.44638592 0 0 0 Z " fill="#E57422" transform="translate(88,92)"/>
<path d="M0 0 C7.09727428 -0.10808032 13.96094956 0.06145994 21 1 C21 1.33 21 1.66 21 2 C19.2984375 2.2165625 19.2984375 2.2165625 17.5625 2.4375 C14.19222799 2.61171478 14.19222799 2.61171478 13 4 C8.06760838 4.24661958 4.50137826 4.25068913 0 2 C0 1.34 0 0.68 0 0 Z " fill="#EE6C0B" transform="translate(147,426)"/>
<path d="M0 0 C1.65 0 3.3 0 5 0 C5.268125 0.804375 5.53625 1.60875 5.8125 2.4375 C6.204375 3.283125 6.59625 4.12875 7 5 C7.99 5.33 8.98 5.66 10 6 C12.28341107 9.24484731 12.17615457 12.12459955 12 16 C8 11.25 8 11.25 8 9 C7.34 9 6.68 9 6 9 C5.7525 8.4225 5.505 7.845 5.25 7.25 C3.83530186 4.70354336 2.08439228 3.01491254 0 1 C0 0.67 0 0.34 0 0 Z " fill="#E28E48" transform="translate(303,105)"/>
<path d="M0 0 C1.32 0.66 2.64 1.32 4 2 C4 3.65 4 5.3 4 7 C3.01 7.33 2.02 7.66 1 8 C1 9.98 1 11.96 1 14 C0.34 14 -0.32 14 -1 14 C-1.33 13.34 -1.66 12.68 -2 12 C-2.66 12.99 -3.32 13.98 -4 15 C-3.54707875 10.28961897 -2.91534439 7.67586901 0 4 C0 2.68 0 1.36 0 0 Z " fill="#EC7013" transform="translate(408,450)"/>
<path d="M0 0 C0.33 0 0.66 0 1 0 C1.36263936 20.83161658 1.36263936 20.83161658 -4 30 C-4.33 30 -4.66 30 -5 30 C-5 28.35 -5 26.7 -5 25 C-4.34 24.67 -3.68 24.34 -3 24 C-2.6029918 21.0616675 -2.6029918 21.0616675 -2.5 17.5625 C-2.16110138 11.54242823 -1.39102291 5.86120331 0 0 Z " fill="#E17D3A" transform="translate(414,433)"/>
<path d="M0 0 C0 0.66 0 1.32 0 2 C2.31 2.33 4.62 2.66 7 3 C7.33 4.65 7.66 6.3 8 8 C5.08482708 6.92598892 3.22189824 6.22189824 1 4 C-1.32854865 3.63473747 -3.66298962 3.30649316 -6 3 C-8.3631385 2.40921538 -10.66949257 1.71342064 -13 1 C-13 0.67 -13 0.34 -13 0 C-4.57142857 -1.28571429 -4.57142857 -1.28571429 0 0 Z " fill="#E76C10" transform="translate(275,82)"/>
<path d="M0 0 C1.09190042 3.27570125 1.28600189 5.56797729 1 9 C-0.375 10.625 -0.375 10.625 -2 12 C-2.68268138 13.32520503 -3.3507041 14.65812182 -4 16 C-4.66 16.66 -5.32 17.32 -6 18 C-5.35812082 12.86496656 -4.31727753 8.0056546 -3 3 C-2.34 3 -1.68 3 -1 3 C-0.67 2.01 -0.34 1.02 0 0 Z " fill="#F0690C" transform="translate(359,281)"/>
<path d="M0 0 C0.33 0 0.66 0 1 0 C1.3760218 7.39509537 1.3760218 7.39509537 -0.4375 10.3125 C-2.90658205 14.55932112 -2.75447761 19.16574878 -3 24 C-3.33 24 -3.66 24 -4 24 C-4.05454409 21.64551325 -4.0939279 19.29232125 -4.125 16.9375 C-4.14820313 15.62652344 -4.17140625 14.31554687 -4.1953125 12.96484375 C-3.9532033 8.05002694 -3.58091264 3.58091264 0 0 Z " fill="#F06B0E" transform="translate(20,172)"/>
<path d="M0 0 C2.81256281 -0.02684312 5.62487241 -0.04676188 8.4375 -0.0625 C9.23994141 -0.07087891 10.04238281 -0.07925781 10.86914062 -0.08789062 C12.91295221 -0.0965143 14.95683902 -0.0522815 17 0 C17.33 0.33 17.66 0.66 18 1 C19.0725 1.0825 20.145 1.165 21.25 1.25 C25.67554243 2.13510849 27.13493591 3.61401517 30 7 C29.38253906 6.80664062 28.76507813 6.61328125 28.12890625 6.4140625 C18.72281056 3.52208179 9.83074203 1.69825831 0 1 C0 0.67 0 0.34 0 0 Z " fill="#E6AE77" transform="translate(251,83)"/>
<path d="M0 0 C1.65 0 3.3 0 5 0 C5.66 2.64 6.32 5.28 7 8 C7.66 8 8.32 8 9 8 C9.33 10.31 9.66 12.62 10 15 C5.81340142 11.17225273 2.62179138 7.05392126 0 2 C0 1.34 0 0.68 0 0 Z " fill="#E28F4F" transform="translate(84,457)"/>
<path d="M0 0 C0.66 0.33 1.32 0.66 2 1 C-1.88643796 5.5132828 -6.19725542 8.40139058 -12 10 C-14.27734375 9.6015625 -14.27734375 9.6015625 -16 9 C-4.15114423 1.7642363 -4.15114423 1.7642363 0 0 Z " fill="#E9A56F" transform="translate(186,27)"/>
<path d="M0 0 C-0.60473539 3.38651819 -1.64378716 5.48128972 -4 8 C-7.25136751 9.89663105 -9.21625991 11 -13 11 C-4.91176471 0 -4.91176471 0 0 0 Z " fill="#E49253" transform="translate(373,265)"/>
<path d="M0 0 C1.32 0 2.64 0 4 0 C4.103125 0.639375 4.20625 1.27875 4.3125 1.9375 C4.539375 2.618125 4.76625 3.29875 5 4 C5.99 4.33 6.98 4.66 8 5 C8.33 6.65 8.66 8.3 9 10 C9.99 10.33 10.98 10.66 12 11 C12 12.32 12 13.64 12 15 C12.66 15.33 13.32 15.66 14 16 C13.34 16.66 12.68 17.32 12 18 C10.87344187 16.08424874 9.74881313 14.16736281 8.625 12.25 C7.99851562 11.18265625 7.37203125 10.1153125 6.7265625 9.015625 C5 6 5 6 3.9609375 3.671875 C3.04226316 1.64468755 3.04226316 1.64468755 0 1 C0 0.67 0 0.34 0 0 Z " fill="#DC9557" transform="translate(398,167)"/>
<path d="M0 0 C-1.81040321 1.33617897 -3.6233784 2.66887384 -5.4375 4 C-6.44683594 4.7425 -7.45617187 5.485 -8.49609375 6.25 C-11 8 -11 8 -12 8 C-12 6.02 -12 4.04 -12 2 C-10.75579353 1.4654744 -9.50429064 0.94791389 -8.25 0.4375 C-7.55390625 0.14746094 -6.8578125 -0.14257812 -6.140625 -0.44140625 C-3.69987216 -1.07831803 -2.3596345 -0.80248831 0 0 Z " fill="#DE8D50" transform="translate(209,94)"/>
<path d="M0 0 C3.57410797 2.68058098 6.31941902 5.42589203 9 9 C8.67 9.66 8.34 10.32 8 11 C5.525 10.01 5.525 10.01 3 9 C3 8.01 3 7.02 3 6 C1.68 5.67 0.36 5.34 -1 5 C-1.33 3.68 -1.66 2.36 -2 1 C-1.34 0.67 -0.68 0.34 0 0 Z " fill="#E68242" transform="translate(354,59)"/>
<path d="M0 0 C0.33 0 0.66 0 1 0 C1.66268329 7.12384541 -0.74611936 13.30879185 -3 20 C-3.33 20 -3.66 20 -4 20 C-4.35634406 14.06093237 -4.0048963 10.28861748 -1 5 C-0.30092586 2.26427415 -0.30092586 2.26427415 0 0 Z " fill="#DE9456" transform="translate(481,228)"/>
<path d="M0 0 C1.65 0.33 3.3 0.66 5 1 C3.71481447 3.31632275 2.42228734 5.62796942 1.125 7.9375 C0.76019531 8.59685547 0.39539063 9.25621094 0.01953125 9.93554688 C-2.7734375 14.88671875 -2.7734375 14.88671875 -5 16 C-4.67 13.69 -4.34 11.38 -4 9 C-3.34 9 -2.68 9 -2 9 C-2 8.01 -2 7.02 -2 6 C-1.34 6 -0.68 6 0 6 C0 4.02 0 2.04 0 0 Z " fill="#E38942" transform="translate(183,111)"/>
<path d="M0 0 C6.23440168 1.58960332 12.16287645 3.27600901 18 6 C18 6.33 18 6.66 18 7 C12.32723489 7.29341888 9.00932754 7.00559652 4 4 C4 3.34 4 2.68 4 2 C2.68 1.67 1.36 1.34 0 1 C0 0.67 0 0.34 0 0 Z " fill="#EE6D0F" transform="translate(296,25)"/>
<path d="M0 0 C0.33 0.99 0.66 1.98 1 3 C1.66 3.33 2.32 3.66 3 4 C1.92338719 5.4425402 0.83839897 6.87883161 -0.25 8.3125 C-0.85328125 9.11300781 -1.4565625 9.91351563 -2.078125 10.73828125 C-3.90270136 12.88549612 -5.68297046 14.41601299 -8 16 C-8.33 15.01 -8.66 14.02 -9 13 C-8.01 13 -7.02 13 -6 13 C-6 12.34 -6 11.68 -6 11 C-5.34 11 -4.68 11 -4 11 C-4 10.34 -4 9.68 -4 9 C-3.34 9 -2.68 9 -2 9 C-1.855625 7.700625 -1.71125 6.40125 -1.5625 5.0625 C-1.125 1.125 -1.125 1.125 0 0 Z " fill="#E49455" transform="translate(406,461)"/>
<path d="M0 0 C0.33 0 0.66 0 1 0 C0.57664615 6.49142565 -1.91099799 11.33492989 -5 17 C-6.35406529 12.93780414 -5.74648465 9.81289129 -4.125 5.875 C-2.87527622 3.79212704 -1.54202728 1.8772506 0 0 Z " fill="#DE9051" transform="translate(476,248)"/>
<path d="M0 0 C-1.66215268 1.33895632 -3.32963607 2.67130142 -5 4 C-5.680625 4.5775 -6.36125 5.155 -7.0625 5.75 C-9 7 -9 7 -13 7 C-12.875 5.1875 -12.875 5.1875 -12 3 C-7.91068936 0.33719307 -4.83960066 -0.34568576 0 0 Z " fill="#DE8A47" transform="translate(113,156)"/>
<path d="M0 0 C1.32 0 2.64 0 4 0 C4 1.32 4 2.64 4 4 C3.01 4 2.02 4 1 4 C1 5.65 1 7.3 1 9 C-3.43076923 11.09230769 -3.43076923 11.09230769 -6.3125 10.625 C-6.869375 10.41875 -7.42625 10.2125 -8 10 C-3.25 7 -3.25 7 -1 7 C-1 5.68 -1 4.36 -1 3 C-0.34 3 0.32 3 1 3 C0.67 2.01 0.34 1.02 0 0 Z " fill="#EA711B" transform="translate(171,128)"/>
<path d="M0 0 C0.66 0.33 1.32 0.66 2 1 C0.88200014 2.33920838 -0.24461897 3.67122556 -1.375 5 C-2.31472656 6.11375 -2.31472656 6.11375 -3.2734375 7.25 C-4.12808594 8.11625 -4.12808594 8.11625 -5 9 C-5.66 9 -6.32 9 -7 9 C-7 9.66 -7 10.32 -7 11 C-7.66 11 -8.32 11 -9 11 C-9.33 11.99 -9.66 12.98 -10 14 C-10.66 13.67 -11.32 13.34 -12 13 C-10.56652501 9.61042892 -8.81218308 7.7219322 -6 5.375 C-3.92339664 3.6266832 -1.92037235 1.92037235 0 0 Z " fill="#E49C64" transform="translate(155,46)"/>
<path d="M0 0 C0.66 0.33 1.32 0.66 2 1 C1.67 1.99 1.34 2.98 1 4 C-0.32 4 -1.64 4 -3 4 C-3 4.66 -3 5.32 -3 6 C-8.14209827 10.09030544 -8.14209827 10.09030544 -11.375 9.75 C-11.91125 9.5025 -12.4475 9.255 -13 9 C-12.0409375 8.5978125 -12.0409375 8.5978125 -11.0625 8.1875 C-8.66868314 7.11332248 -8.66868314 7.11332248 -8 4 C-4.535 3.505 -4.535 3.505 -1 3 C-0.67 2.01 -0.34 1.02 0 0 Z " fill="#ED6B11" transform="translate(165,42)"/>
<path d="M0 0 C0.33 0.99 0.66 1.98 1 3 C0.43410156 3.20496094 -0.13179687 3.40992188 -0.71484375 3.62109375 C-1.44832031 3.89050781 -2.18179688 4.15992188 -2.9375 4.4375 C-4.03384766 4.83775391 -4.03384766 4.83775391 -5.15234375 5.24609375 C-6.98305678 5.85386948 -6.98305678 5.85386948 -8 7 C-9.66617115 7.04063832 -11.33388095 7.042721 -13 7 C-12.34 6.67 -11.68 6.34 -11 6 C-10.72414062 5.34515625 -10.44828125 4.6903125 -10.1640625 4.015625 C-9 2 -9 2 -6.8359375 1.171875 C-6.02382812 1.03265625 -5.21171875 0.8934375 -4.375 0.75 C-3.14910156 0.52570312 -3.14910156 0.52570312 -1.8984375 0.296875 C-1.27195313 0.19890625 -0.64546875 0.1009375 0 0 Z " fill="#E86F1A" transform="translate(197,25)"/>
<path d="M0 0 C6.78982507 0.37035409 11.26884891 2.40476401 17 6 C13.40144968 7.30249153 11.41900527 6.69931441 7.9375 5.25 C7.08027344 4.90453125 6.22304687 4.5590625 5.33984375 4.203125 C3.07264009 3.03735083 1.66827457 1.90347394 0 0 Z " fill="#DF9C62" transform="translate(108,484)"/>
<path d="M0 0 C0.33 0.66 0.66 1.32 1 2 C0.39031953 3.68834592 -0.28837557 5.35202764 -1 7 C-1.28875 8.03125 -1.5775 9.0625 -1.875 10.125 C-3.10609429 13.27112986 -4.14904623 14.28942774 -7 16 C-5.26017005 10.18738629 -3.1889511 5.16830006 0 0 Z M-8 16 C-7.67 16.99 -7.34 17.98 -7 19 C-7.99 19.33 -8.98 19.66 -10 20 C-9.34 18.68 -8.68 17.36 -8 16 Z " fill="#EF6C0D" transform="translate(39,130)"/>
<path d="M0 0 C1.32 0 2.64 0 4 0 C4 0.66 4 1.32 4 2 C4.66 2 5.32 2 6 2 C6 2.66 6 3.32 6 4 C7.32 4 8.64 4 10 4 C10.33 5.32 10.66 6.64 11 8 C6.69235185 6.43358249 2.93828536 4.31663844 -1 2 C-0.67 1.34 -0.34 0.68 0 0 Z " fill="#DF9359" transform="translate(283,89)"/>
<path d="M0 0 C1.65 0 3.3 0 5 0 C5 0.66 5 1.32 5 2 C5.9590625 2.1546875 5.9590625 2.1546875 6.9375 2.3125 C7.618125 2.539375 8.29875 2.76625 9 3 C9.33 3.99 9.66 4.98 10 6 C10.99 6.66 11.98 7.32 13 8 C12.01 8.495 12.01 8.495 11 9 C9.0546875 8.07421875 9.0546875 8.07421875 6.875 6.6875 C5.78832031 6.01267578 5.78832031 6.01267578 4.6796875 5.32421875 C4.12539062 4.88722656 3.57109375 4.45023437 3 4 C3 3.34 3 2.68 3 2 C2.01 1.67 1.02 1.34 0 1 C0 0.67 0 0.34 0 0 Z " fill="#E18C45" transform="translate(60,306)"/>
<path d="M0 0 C3.96 1.98 3.96 1.98 8 4 C8 4.66 8 5.32 8 6 C8.66 6 9.32 6 10 6 C10.66 7.65 11.32 9.3 12 11 C11.34 11 10.68 11 10 11 C10 10.34 10 9.68 10 9 C8.35 8.67 6.7 8.34 5 8 C5 6.68 5 5.36 5 4 C3.35 3.67 1.7 3.34 0 3 C0 2.01 0 1.02 0 0 Z " fill="#E18546" transform="translate(423,99)"/>
<path d="M0 0 C1.299375 0.7115625 1.299375 0.7115625 2.625 1.4375 C5.85387374 2.93234895 8.49033826 3.58218313 12 4 C12 4.66 12 5.32 12 6 C12.66 6.33 13.32 6.66 14 7 C12.22844346 6.88570603 10.45773771 6.75816963 8.6875 6.625 C7.70136719 6.55539063 6.71523438 6.48578125 5.69921875 6.4140625 C3 6 3 6 0 4 C0 2.68 0 1.36 0 0 Z " fill="#E68947" transform="translate(370,79)"/>
<path d="M0 0 C0 0.99 0 1.98 0 3 C-0.598125 3.268125 -1.19625 3.53625 -1.8125 3.8125 C-4.04327908 4.8893979 -4.04327908 4.8893979 -5.625 6.625 C-6.07875 7.07875 -6.5325 7.5325 -7 8 C-7.66 8 -8.32 8 -9 8 C-9 8.99 -9 9.98 -9 11 C-9.66 11 -10.32 11 -11 11 C-11 11.66 -11 12.32 -11 13 C-11.66 13 -12.32 13 -13 13 C-12.67 12.01 -12.34 11.02 -12 10 C-11.34 10 -10.68 10 -10 10 C-10 9.01 -10 8.02 -10 7 C-3.68292683 0 -3.68292683 0 0 0 Z " fill="#E86E14" transform="translate(447,293)"/>
<path d="M0 0 C0.33 0 0.66 0 1 0 C0.9669712 2.10483555 0.89755454 4.2091243 0.8125 6.3125 C0.77769531 7.48425781 0.74289062 8.65601563 0.70703125 9.86328125 C0 13 0 13 -2.55078125 14.91796875 C-3.76314453 15.45357422 -3.76314453 15.45357422 -5 16 C-3.50723624 10.60308488 -1.80304155 5.30094216 0 0 Z " fill="#E29A5A" transform="translate(413,219)"/>
<path d="M0 0 C3.7602985 0.58107632 6.53035032 1.65199496 9.8125 3.5625 C10.60269531 4.01753906 11.39289063 4.47257812 12.20703125 4.94140625 C12.79871094 5.29074219 13.39039063 5.64007813 14 6 C11.09905209 7.45047396 9.44027404 6.45356803 6.375 5.5625 C5.37210937 5.27503906 4.36921875 4.98757812 3.3359375 4.69140625 C2.17964844 4.34916016 2.17964844 4.34916016 1 4 C0.67 2.68 0.34 1.36 0 0 Z " fill="#E99E67" transform="translate(409,92)"/>
<path d="M0 0 C7.08076251 -0.40850553 13.19925959 1.09579269 20 3 C20 3.33 20 3.66 20 4 C15.05 3.67 10.1 3.34 5 3 C5 2.34 5 1.68 5 1 C3.35 1 1.7 1 0 1 C0 0.67 0 0.34 0 0 Z " fill="#E8A36D" transform="translate(267,16)"/>
<path d="M0 0 C0.33 0.66 0.66 1.32 1 2 C1.66 2 2.32 2 3 2 C3.53154742 3.60064843 4.04988353 5.20568874 4.5625 6.8125 C4.85253906 7.70582031 5.14257812 8.59914062 5.44140625 9.51953125 C6 12 6 12 5 15 C4.01 15.495 4.01 15.495 3 16 C2.49595192 13.89679937 1.99689492 11.79240209 1.5 9.6875 C1.08234375 7.92986328 1.08234375 7.92986328 0.65625 6.13671875 C0 3 0 3 0 0 Z " fill="#E39C5F" transform="translate(411,185)"/>
<path d="M0 0 C0.66 0 1.32 0 2 0 C2 0.99 2 1.98 2 3 C2.66 3 3.32 3 4 3 C4.433125 4.093125 4.86625 5.18625 5.3125 6.3125 C6.52013265 9.16274198 7.75691527 10.85887367 10 13 C10.6875 15.1875 10.6875 15.1875 11 17 C10.34 16.67 9.68 16.34 9 16 C9 15.34 9 14.68 9 14 C8.01 13.67 7.02 13.34 6 13 C4.39453125 10.3125 4.39453125 10.3125 2.8125 7 C2.28269531 5.906875 1.75289063 4.81375 1.20703125 3.6875 C0 1 0 1 0 0 Z " fill="#E3A065" transform="translate(315,121)"/>
<path d="M0 0 C0.75 1.625 0.75 1.625 1 4 C-2.17808219 9.5890411 -2.17808219 9.5890411 -5 11 C-5.33 9.68 -5.66 8.36 -6 7 C-5.34 7 -4.68 7 -4 7 C-3.71125 6.21625 -3.4225 5.4325 -3.125 4.625 C-2 2 -2 2 0 0 Z " fill="#E6883F" transform="translate(130,73)"/>
<path d="M0 0 C0 0.66 0 1.32 0 2 C-0.61875 2.2475 -1.2375 2.495 -1.875 2.75 C-4.1678474 3.80502183 -4.1678474 3.80502183 -4.8125 6.0625 C-5.204375 6.701875 -5.59625 7.34125 -6 8 C-9.625 8.75 -9.625 8.75 -13 9 C-4.66666667 0 -4.66666667 0 0 0 Z " fill="#E29859" transform="translate(170,37)"/>
<path d="M0 0 C1.32 0.33 2.64 0.66 4 1 C4.33 4.3 4.66 7.6 5 11 C1.87729874 8.48169253 1.05476902 7.2738451 0.25 3.25 C0.1675 2.1775 0.085 1.105 0 0 Z " fill="#E7803A" transform="translate(32,271)"/>
<path d="M0 0 C0 1.65 0 3.3 0 5 C-0.99 5 -1.98 5 -3 5 C-3.4021875 6.2065625 -3.4021875 6.2065625 -3.8125 7.4375 C-4.4003125 8.7059375 -4.4003125 8.7059375 -5 10 C-5.99 10.33 -6.98 10.66 -8 11 C-7.07640584 7.38958646 -4.70074073 0 0 0 Z " fill="#EB7115" transform="translate(95,165)"/>
<path d="M0 0 C4.21878192 -0.19622241 7.17010894 0.19769832 11 2 C11 2.66 11 3.32 11 4 C11.99 4.33 12.98 4.66 14 5 C9.13103697 4.40380045 4.67209049 3.43023178 0 2 C0 1.34 0 0.68 0 0 Z " fill="#E56916" transform="translate(281,20)"/>
<path d="M0 0 C-0.99 0 -1.98 0 -3 0 C-3.33 0.99 -3.66 1.98 -4 3 C-10.435 3.495 -10.435 3.495 -17 4 C-14.59327602 1.59327602 -12.88621451 1.20867825 -9.625 0.3125 C-8.66851562 0.04050781 -7.71203125 -0.23148438 -6.7265625 -0.51171875 C-4.02935339 -0.9947433 -2.55027856 -0.9004538 0 0 Z " fill="#EA9D6F" transform="translate(216,19)"/>
<path d="M0 0 C1.33895632 1.66215268 2.67130142 3.32963607 4 5 C4.5775 5.66 5.155 6.32 5.75 7 C7.30187197 9.48299515 7.23959654 11.12484151 7 14 C6.67 13.01 6.34 12.02 6 11 C5.01 10.67 4.02 10.34 3 10 C0.78248601 6.30414334 0 4.36991627 0 0 Z " fill="#EC6B12" transform="translate(25,257)"/>
<path d="M0 0 C0.33 0 0.66 0 1 0 C1.53030068 2.43578787 2.04952312 4.87305975 2.5625 7.3125 C2.71396484 8.00279297 2.86542969 8.69308594 3.02148438 9.40429688 C3.71761569 12.75544066 4.10155309 14.69534072 3 18 C0.22528921 11.75690073 -0.37634203 6.80203375 0 0 Z " fill="#D89252" transform="translate(80,437)"/>
<path d="M0 0 C2.64 0.33 5.28 0.66 8 1 C8.96661363 4.12180401 8.98988909 6.52083795 8.5625 9.75 C8.46066406 10.54921875 8.35882813 11.3484375 8.25390625 12.171875 C8.17011719 12.77515625 8.08632812 13.3784375 8 14 C7.67 14 7.34 14 7 14 C7 10.7 7 7.4 7 4 C5.68 3.34 4.36 2.68 3 2 C2.01 1.34 1.02 0.68 0 0 Z " fill="#DA8F4C" transform="translate(72,315)"/>
<path d="M0 0 C1.485 0.99 1.485 0.99 3 2 C3 2.66 3 3.32 3 4 C3.5775 4.268125 4.155 4.53625 4.75 4.8125 C7.0325868 6.01719859 8.9737942 7.40798115 11 9 C9.35 9 7.7 9 6 9 C6 8.34 6 7.68 6 7 C4.68 7 3.36 7 2 7 C1.34 4.69 0.68 2.38 0 0 Z " fill="#E7965A" transform="translate(99,248)"/>
<path d="M0 0 C0.33 0 0.66 0 1 0 C1.19644384 1.89492746 1.38177288 3.79100903 1.5625 5.6875 C1.66691406 6.74324219 1.77132813 7.79898438 1.87890625 8.88671875 C1.99277552 11.81426086 1.70848415 14.17131144 1 17 C0.34 17 -0.32 17 -1 17 C-0.67 11.39 -0.34 5.78 0 0 Z " fill="#E5A466" transform="translate(415,201)"/>
<path d="M0 0 C0.66 0 1.32 0 2 0 C1.39009109 3.55780196 0.4216319 6.6828589 -1 10 C-1.66 10 -2.32 10 -3 10 C-3 7.69 -3 5.38 -3 3 C-2.34 3 -1.68 3 -1 3 C-0.67 2.01 -0.34 1.02 0 0 Z " fill="#E1813C" transform="translate(88,175)"/>
<path d="M0 0 C-3 3 -6 6 -9 9 C-9 7.35 -9 5.7 -9 4 C-8.01 4 -7.02 4 -6 4 C-6 2.68 -6 1.36 -6 0 C-3 -1 -3 -1 0 0 Z " fill="#E29252" transform="translate(197,103)"/>
<path d="M0 0 C0.625 1.8125 0.625 1.8125 1 4 C0.01 5.485 0.01 5.485 -1 7 C-1.66 7 -2.32 7 -3 7 C-3.33 9.64 -3.66 12.28 -4 15 C-5.14453125 13.32421875 -5.14453125 13.32421875 -6 11 C-5.13671875 8.45703125 -5.13671875 8.45703125 -3.6875 5.8125 C-3.21699219 4.93207031 -2.74648438 4.05164063 -2.26171875 3.14453125 C-1 1 -1 1 0 0 Z " fill="#E29559" transform="translate(359,277)"/>
<path d="M0 0 C0.66 0 1.32 0 2 0 C2 0.66 2 1.32 2 2 C3.32 2 4.64 2 6 2 C6.33 3.32 6.66 4.64 7 6 C7.66 6 8.32 6 9 6 C8.67 6.66 8.34 7.32 8 8 C5.36 6.68 2.72 5.36 0 4 C0 2.68 0 1.36 0 0 Z " fill="#ED6B17" transform="translate(331,42)"/>
<path d="M0 0 C1.32 0 2.64 0 4 0 C4 0.99 4 1.98 4 3 C-1.14285714 7 -1.14285714 7 -5 7 C-4.34 5.68 -3.68 4.36 -3 3 C-2.01 3 -1.02 3 0 3 C0 2.01 0 1.02 0 0 Z " fill="#DF8A48" transform="translate(428,308)"/>
<path d="M0 0 C0 3.99904969 -1.72586967 5.80200422 -4 9 C-5.32 8.34 -6.64 7.68 -8 7 C-5.4837822 4.39391727 -2.94865641 2.10618315 0 0 Z " fill="#E56C11" transform="translate(404,244)"/>
<path d="M0 0 C5.67276511 -0.29341888 8.99067246 -0.00559652 14 3 C13.67 3.66 13.34 4.32 13 5 C10.36 4.34 7.72 3.68 5 3 C5 2.34 5 1.68 5 1 C3.35 1 1.7 1 0 1 C0 0.67 0 0.34 0 0 Z " fill="#E56A1C" transform="translate(396,90)"/>
<path d="M0 0 C0.66 0 1.32 0 2 0 C0.78065514 4.03321763 -0.55954927 7.54269479 -3 11 C-3.66 11 -4.32 11 -5 11 C-4.67 9.68 -4.34 8.36 -4 7 C-3.34 7 -2.68 7 -2 7 C-2 5.35 -2 3.7 -2 2 C-1.34 2 -0.68 2 0 2 C0 1.34 0 0.68 0 0 Z " fill="#DE9856" transform="translate(468,265)"/>
<path d="M0 0 C2.96404505 2.80804268 5.44499019 5.18315774 7 9 C6.01 9.33 5.02 9.66 4 10 C4 9.34 4 8.68 4 8 C3.34 8 2.68 8 2 8 C1.34 5.36 0.68 2.72 0 0 Z " fill="#E9924C" transform="translate(453,124)"/>
<path d="M0 0 C2.96404505 2.80804268 5.44499019 5.18315774 7 9 C4 9 4 9 2.375 7.875 C0.52617065 5.35386907 0.34072203 3.06649825 0 0 Z " fill="#E68347" transform="translate(363,70)"/>
<path d="M0 0 C0 0.66 0 1.32 0 2 C-1.4370809 2.05422947 -2.87475462 2.09289723 -4.3125 2.125 C-5.11300781 2.14820313 -5.91351563 2.17140625 -6.73828125 2.1953125 C-9 2 -9 2 -12 0 C-7.66726186 -0.92844389 -4.33273814 -0.92844389 0 0 Z " fill="#E16815" transform="translate(134,489)"/>
<path d="M0 0 C3.63 1.98 7.26 3.96 11 6 C10.01 6.66 9.02 7.32 8 8 C8 7.34 8 6.68 8 6 C6.68 6 5.36 6 4 6 C4 5.34 4 4.68 4 4 C3.34 4 2.68 4 2 4 C2 3.34 2 2.68 2 2 C1.34 2 0.68 2 0 2 C0 1.34 0 0.68 0 0 Z " fill="#E3995A" transform="translate(111,257)"/>
<path d="M0 0 C2.375 -0.1875 2.375 -0.1875 5 0 C5.66 0.99 6.32 1.98 7 3 C6.67 4.32 6.34 5.64 6 7 C4.02 4.69 2.04 2.38 0 0 Z " fill="#E18A49" transform="translate(94,472)"/>
<path d="M0 0 C0.7425 0.0825 1.485 0.165 2.25 0.25 C1.25 3.25 1.25 3.25 -0.75 4.25 C-2.74960012 4.289992 -4.75047242 4.29346799 -6.75 4.25 C-3.42692308 0.31153846 -3.42692308 0.31153846 0 0 Z " fill="#E18846" transform="translate(379.75,260.75)"/>
<path d="M0 0 C5 7.5 5 7.5 5 11 C3.046875 10.2890625 3.046875 10.2890625 1 9 C0.390625 6.8359375 0.390625 6.8359375 0.25 4.375 C0.19328125 3.55773437 0.1365625 2.74046875 0.078125 1.8984375 C0.05234375 1.27195313 0.0265625 0.64546875 0 0 Z " fill="#E49B57" transform="translate(84,225)"/>
<path d="M0 0 C0.66 0.33 1.32 0.66 2 1 C1.24172908 2.17487036 0.46792245 3.33972592 -0.3125 4.5 C-0.74175781 5.1496875 -1.17101563 5.799375 -1.61328125 6.46875 C-2.07089844 6.9740625 -2.52851562 7.479375 -3 8 C-3.99 8 -4.98 8 -6 8 C-5.34 6.68 -4.68 5.36 -4 4 C-3.34 4 -2.68 4 -2 4 C-1.34 2.68 -0.68 1.36 0 0 Z " fill="#E3A366" transform="translate(48,118)"/>
<path d="M0 0 C3.63 0 7.26 0 11 0 C11 0.33 11 0.66 11 1 C8.03 1 5.06 1 2 1 C1.67 1.99 1.34 2.98 1 4 C-0.65 4 -2.3 4 -4 4 C-3.01 3.67 -2.02 3.34 -1 3 C-0.67 2.01 -0.34 1.02 0 0 Z " fill="#E26F1B" transform="translate(224,82)"/>
<path d="M0 0 C2.64 0.33 5.28 0.66 8 1 C8 1.66 8 2.32 8 3 C9.32 3.33 10.64 3.66 12 4 C11.67 4.66 11.34 5.32 11 6 C9.02 5.34 7.04 4.68 5 4 C5 3.34 5 2.68 5 2 C3.35 1.67 1.7 1.34 0 1 C0 0.67 0 0.34 0 0 Z " fill="#DF8B49" transform="translate(287,20)"/>
<path d="M0 0 C0.66 0 1.32 0 2 0 C2 0.66 2 1.32 2 2 C3.32 2 4.64 2 6 2 C6.33 4.31 6.66 6.62 7 9 C4.03595495 6.19195732 1.55500981 3.81684226 0 0 Z " fill="#DD8C4C" transform="translate(37,282)"/>
<path d="M0 0 C1.98 0 3.96 0 6 0 C3.51047079 2.66735273 1.36591866 4.55746343 -2 6 C-1.34 4.02 -0.68 2.04 0 0 Z " fill="#EB6B0C" transform="translate(373,265)"/>
<path d="M0 0 C0.33 1.32 0.66 2.64 1 4 C-0.65 5.32 -2.3 6.64 -4 8 C-4.66 7.67 -5.32 7.34 -6 7 C-4.02 4.69 -2.04 2.38 0 0 Z " fill="#E1995F" transform="translate(404,240)"/>
<path d="M0 0 C1.485 0.99 1.485 0.99 3 2 C3.29296875 4.3828125 3.29296875 4.3828125 3.1875 7.125 C3.16042969 8.03507813 3.13335938 8.94515625 3.10546875 9.8828125 C3.07066406 10.58148438 3.03585938 11.28015625 3 12 C0.7655402 7.96707255 0.45503257 4.55032566 0 0 Z " fill="#E2945B" transform="translate(14,229)"/>
<path d="M0 0 C2.5 1.25 2.5 1.25 5 3 C5 4.32 5 5.64 5 7 C5.66 7.33 6.32 7.66 7 8 C6.34 8.66 5.68 9.32 5 10 C4.16121545 8.71186658 3.32913217 7.41936744 2.5 6.125 C2.0359375 5.40570313 1.571875 4.68640625 1.09375 3.9453125 C0 2 0 2 0 0 Z " fill="#E8A672" transform="translate(405,175)"/>
<path d="M0 0 C5.5 -0.36666667 5.5 -0.36666667 7.875 1.375 C9 3 9 3 9 5 C5.22454612 3.90931332 2.52956528 3.0916909 0 0 Z " fill="#DE8E48" transform="translate(374,151)"/>
<path d="M0 0 C0.99 0 1.98 0 3 0 C2 3 2 3 -0.4375 4.75 C-1.7059375 5.36875 -1.7059375 5.36875 -3 6 C-3.66 5.67 -4.32 5.34 -5 5 C-4.67 4.01 -4.34 3.02 -4 2 C-2.68 2 -1.36 2 0 2 C0 1.34 0 0.68 0 0 Z " fill="#E2924C" transform="translate(215,87)"/>
<path d="M0 0 C2.1875 -0.3125 2.1875 -0.3125 5 0 C7.8125 2.5 7.8125 2.5 10 5 C6.7 4.01 3.4 3.02 0 2 C0 1.34 0 0.68 0 0 Z " fill="#E1985F" transform="translate(271,85)"/>
<path d="M0 0 C-1.36944102 2.94956528 -2.87830409 5.52468811 -5 8 C-5.66 8 -6.32 8 -7 8 C-7 5 -7 5 -4.625 2.3125 C-2 0 -2 0 0 0 Z " fill="#E3AF7D" transform="translate(459,283)"/>
<path d="M0 0 C0.99 0.495 0.99 0.495 2 1 C2 2.32 2 3.64 2 5 C2.66 5 3.32 5 4 5 C4 6.98 4 8.96 4 11 C1.9656541 9.58480285 1.09589607 8.45017877 0.578125 6.01953125 C0.33726048 4.01823046 0.16467259 2.0090056 0 0 Z " fill="#EE6F14" transform="translate(414,187)"/>
<path d="M0 0 C0.99 0 1.98 0 3 0 C1.68775452 3.93673644 0.08089673 6.22719294 -3 9 C-3 7.35 -3 5.7 -3 4 C-2.01 4 -1.02 4 0 4 C0 2.68 0 1.36 0 0 Z " fill="#E19E5F" transform="translate(175,128)"/>
<path d="M0 0 C0.66 0 1.32 0 2 0 C1.43454163 3.95820859 0.19097652 6.6659053 -2 10 C-3.33332095 7.3333581 -2.67102033 5.83319697 -2 3 C-1.34 3 -0.68 3 0 3 C0 2.01 0 1.02 0 0 Z " fill="#E1A264" transform="translate(181,117)"/>
<path d="M0 0 C1.32 0.33 2.64 0.66 4 1 C4 1.99 4 2.98 4 4 C2.02 4.99 2.02 4.99 0 6 C0 4.02 0 2.04 0 0 Z " fill="#E58634" transform="translate(197,96)"/>
<path d="M0 0 C0 0.66 0 1.32 0 2 C-6.45 6.09326923 -6.45 6.09326923 -9.234375 5.62109375 C-9.81703125 5.41613281 -10.3996875 5.21117188 -11 5 C-9.54462432 4.16151196 -8.08559627 3.32936066 -6.625 2.5 C-5.81289062 2.0359375 -5.00078125 1.571875 -4.1640625 1.09375 C-2 0 -2 0 0 0 Z " fill="#EAA272" transform="translate(85,93)"/>
<path d="M0 0 C0.66 0.33 1.32 0.66 2 1 C-1.17320782 4.53586014 -3.16743695 6.58578031 -8 7 C-7.67 6.34 -7.34 5.68 -7 5 C-6.01 5 -5.02 5 -4 5 C-4 4.01 -4 3.02 -4 2 C-2.125 0.9375 -2.125 0.9375 0 0 Z " fill="#E78D52" transform="translate(186,27)"/>
<path d="M0 0 C1.98 0 3.96 0 6 0 C3.93243723 2.7972908 2.85559629 3.02692273 -0.6875 3.6875 C-1.780625 3.790625 -2.87375 3.89375 -4 4 C-2.68 3.34 -1.36 2.68 0 2 C0 1.34 0 0.68 0 0 Z " fill="#E29F73" transform="translate(379,486)"/>
<path d="M0 0 C0.66 0 1.32 0 2 0 C2.433125 0.474375 2.86625 0.94875 3.3125 1.4375 C5.44693733 3.41383086 7.16307947 3.61663236 10 4 C10 4.33 10 4.66 10 5 C3.375 5.25 3.375 5.25 0 3 C0 2.01 0 1.02 0 0 Z " fill="#EF6B0B" transform="translate(118,484)"/>
<path d="M0 0 C3.625 -0.1875 3.625 -0.1875 7 0 C6.01 0.495 6.01 0.495 5 1 C5 1.66 5 2.32 5 3 C2.69 3 0.38 3 -2 3 C-1.34 2.01 -0.68 1.02 0 0 Z " fill="#F26B08" transform="translate(339,427)"/>
<path d="M0 0 C3 2 3 2 3.51171875 4.1640625 C3.56972656 4.97617187 3.62773437 5.78828125 3.6875 6.625 C3.75324219 7.44226563 3.81898438 8.25953125 3.88671875 9.1015625 C3.92410156 9.72804688 3.96148437 10.35453125 4 11 C0.85041169 7.57653445 0.43820891 4.55737263 0 0 Z " fill="#E36A15" transform="translate(136,279)"/>
<path d="M0 0 C1.32 0 2.64 0 4 0 C4 1.32 4 2.64 4 4 C3.01 4.33 2.02 4.66 1 5 C0.34 5.66 -0.32 6.32 -1 7 C-1 5.68 -1 4.36 -1 3 C-0.34 3 0.32 3 1 3 C0.67 2.01 0.34 1.02 0 0 Z " fill="#EA6A0E" transform="translate(171,128)"/>
<path d="M0 0 C0.99 0.33 1.98 0.66 3 1 C3 1.99 3 2.98 3 4 C3.66 4 4.32 4 5 4 C5 4.99 5 5.98 5 7 C4.01 7 3.02 7 2 7 C0 4 0 4 0 0 Z " fill="#EF6D17" transform="translate(313,112)"/>
<path d="M0 0 C2.64 1.98 5.28 3.96 8 6 C7.01 6.33 6.02 6.66 5 7 C3.29115995 5.37660195 1.62553283 3.70680947 0 2 C0 1.34 0 0.68 0 0 Z " fill="#E8A668" transform="translate(433,105)"/>
<path d="M0 0 C2.31 0.66 4.62 1.32 7 2 C7 2.66 7 3.32 7 4 C4.69 3.67 2.38 3.34 0 3 C0 2.01 0 1.02 0 0 Z " fill="#E36C19" transform="translate(416,97)"/>
<path d="M0 0 C0.66 0 1.32 0 2 0 C2 0.66 2 1.32 2 2 C2.99 1.67 3.98 1.34 5 1 C5 2.98 5 4.96 5 7 C1.18461538 4.53846154 1.18461538 4.53846154 0.25 1.8125 C0.1675 1.214375 0.085 0.61625 0 0 Z " fill="#DB7C39" transform="translate(43,288)"/>
<path d="M0 0 C0.99 0.33 1.98 0.66 3 1 C2.40138258 3.35171131 1.73075648 5.6859378 1 8 C0.01 8.495 0.01 8.495 -1 9 C-0.67 6.03 -0.34 3.06 0 0 Z " fill="#E59A58" transform="translate(471,256)"/>
<path d="M0 0 C2.79872437 2.52788007 4.45773019 4.20411134 5 8 C4.34 8 3.68 8 3 8 C0.25624329 5.04518508 0 4.22528092 0 0 Z " fill="#E19D65" transform="translate(465,141)"/>
<path d="M0 0 C2.3125 -0.25 2.3125 -0.25 5 0 C6.8125 2 6.8125 2 8 4 C5.6875 4.25 5.6875 4.25 3 4 C1.1875 2 1.1875 2 0 0 Z " fill="#E68643" transform="translate(445,120)"/>
<path d="M0 0 C1.32 0.33 2.64 0.66 4 1 C4.33 3.31 4.66 5.62 5 8 C4.67 7.01 4.34 6.02 4 5 C3.34 5 2.68 5 2 5 C2 4.01 2 3.02 2 2 C1.34 2 0.68 2 0 2 C0 1.34 0 0.68 0 0 Z " fill="#DF6B1A" transform="translate(315,119)"/>
<path d="M0 0 C0.99 0 1.98 0 3 0 C1.70700306 2.88437779 0.34058637 4.87219421 -2 7 C-1.125 2.25 -1.125 2.25 0 0 Z " fill="#E2A75D" transform="translate(92,170)"/>
<path d="M0 0 C2 4 2 4 2 7 C1.67 7.66 1.34 8.32 1 9 C0.34 9 -0.32 9 -1 9 C-0.67 6.03 -0.34 3.06 0 0 Z " fill="#ED6A0B" transform="translate(21,162)"/>
<path d="M0 0 C2.475 0.495 2.475 0.495 5 1 C5 1.99 5 2.98 5 4 C5.99 4.33 6.98 4.66 8 5 C6.35 5 4.7 5 3 5 C3 4.34 3 3.68 3 3 C2.01 2.67 1.02 2.34 0 2 C0 1.34 0 0.68 0 0 Z " fill="#E36D18" transform="translate(380,151)"/>
<path d="M0 0 C-2.39763185 2.39763185 -3.33273498 2.34280586 -6.625 2.625 C-7.44226563 2.69976563 -8.25953125 2.77453125 -9.1015625 2.8515625 C-9.72804687 2.90054687 -10.35453125 2.94953125 -11 3 C-4.33333333 -1.44444444 -4.33333333 -1.44444444 0 0 Z " fill="#EAA677" transform="translate(199,24)"/>
</svg>
